<?xml version="1.0" encoding="UTF-8"?>
<svg id="Layer_1" data-name="Layer 1" xmlns="http://www.w3.org/2000/svg" viewBox="0 0 2080 2080">
  <defs>
    <style>
      .cls-1 {
        fill: none;
      }

      .cls-2 {
        fill: #fff;
      }
    </style>
  </defs>
  <g>
    <g>
      <path class="cls-2" d="M843.07,671.71c-4.28-1.51-9.27-7.84-10.81-12.39-5.72-16.92-20.26-28.11-38.68-28.43l-61.53-1.08c-18.74-.33-34.52-9.57-50.88-17.91-5.4-2.75-9.33-6.19-11.49-11.22-5.75-13.36,12.53-26.21,21.26-34.69,6.93-6.73,10.28-16.91,14.54-25.8,13.75-28.66,26-56.66,37.98-86.19l30.5-75.21,4.39-11.14-44.02-22.1,23.37-42.62,39.95,23.79-7.11,44.03c7.92,3.88,14.86,6.43,22.98,8.38l8.96-16.5,57.09,7.67c24.48,3.29,47.68-.07,69.63-11.3l22.02-11.27c-.71,36.95-8.11,71.25-16.37,107.27l-24.79,108.2c-2.92,12.74-6.59,24.77-12.01,36.53l-39.06,84.66-35.93-12.68Z"/>
      <path d="M880.05,686.87l-37.64-13.28c-4.97-1.75-10.33-8.59-12.04-13.64-5.55-16.4-19.65-26.77-36.82-27.07l-61.53-1.08c-17.26-.3-32.22-8.04-46.69-15.52-1.68-.87-3.37-1.74-5.06-2.6-6.26-3.19-10.21-7.07-12.42-12.21-5.4-12.55,7.54-24.14,16.99-32.59,1.72-1.54,3.35-3,4.71-4.32,5.08-4.94,8.25-12.09,11.31-19.01.91-2.06,1.85-4.19,2.83-6.22,13.13-27.37,25.54-55.52,37.93-86.07l30.5-75.21,3.71-9.42-44.24-22.21,25.37-46.25,42.9,25.55-7.08,43.9c6.83,3.26,12.89,5.48,19.75,7.22l8.88-16.35,58.46,7.86c24.92,3.35,47.32-.28,68.45-11.1l25-12.8-.06,3.34c-.7,36.36-7.85,70.28-16.42,107.68l-24.79,108.2c-3.29,14.36-7.15,26.09-12.14,36.92l-39.83,86.31ZM843.73,669.82l34.21,12.07,38.3-83c4.88-10.57,8.65-22.05,11.88-36.13l24.79-108.2c8.25-36.02,15.18-68.78,16.23-103.51l-19.03,9.74c-21.58,11.05-45.41,14.92-70.81,11.51l-55.72-7.49-9.03,16.63-1.49-.36c-8.23-1.98-15.23-4.53-23.39-8.53l-1.33-.65,7.12-44.15-37-22.04-21.38,38.98,43.8,21.99-5.06,12.84-30.51,75.23c-12.42,30.63-24.86,58.86-38.03,86.3-.95,1.98-1.88,4.08-2.77,6.11-3.21,7.27-6.54,14.78-12.18,20.26-1.42,1.38-3.08,2.87-4.83,4.44-9.02,8.07-20.25,18.12-15.99,28.03,1.82,4.24,5.18,7.49,10.56,10.23,1.7.87,3.39,1.74,5.08,2.62,14.71,7.6,28.6,14.79,44.93,15.07l61.53,1.08c18.9.33,34.43,11.75,40.54,29.79,1.35,3.99,5.92,9.86,9.58,11.15Z"/>
    </g>
    <g>
      <path d="M781.61,510.22c3.7,0,6.02,2.2,6.02,5.4s-2.32,5.45-6.02,5.45h-4.87v5.9h-2.67v-16.75h7.55ZM781.61,518.62c2.1,0,3.35-1.2,3.35-3s-1.25-2.97-3.35-2.97h-4.87v5.97h4.87Z"/>
      <path d="M802.05,526.97h-2.6v-1.52c-1,1.2-2.45,1.87-4.27,1.87-3,0-4.97-2.15-4.97-5.27v-7.47h2.6v6.95c0,2.02,1.17,3.4,2.97,3.4,2.22,0,3.67-1.5,3.67-4.62v-5.72h2.6v12.4Z"/>
      <path d="M814.21,514.52l-.18,2.5c-.2-.02-.5-.02-.72-.02-3.15,0-4.7,2.2-4.7,5.6v4.37h-2.6v-12.4h2.6v2.65c1-1.65,2.57-2.8,4.72-2.8.3,0,.55,0,.88.1Z"/>
      <path d="M828.5,520.77c0,3.85-2.97,6.5-6.62,6.5s-6.67-2.65-6.67-6.5,3-6.47,6.67-6.47,6.62,2.62,6.62,6.47ZM825.98,520.77c0-2.57-1.97-4.25-4.1-4.25s-4.12,1.67-4.12,4.25,1.95,4.25,4.12,4.25,4.1-1.67,4.1-4.25Z"/>
      <path d="M840.48,526.97l-5.72-5.15h-.75v5.15h-2.6v-18h2.6v10.27h.77l5.17-4.67h3.32l-6.5,6,7.22,6.4h-3.52Z"/>
      <path d="M857.28,526.97h-2.6v-13.57l-4.3,2.3v-2.42l5.25-3.05h1.65v16.75Z"/>
      <path d="M871.73,523.27v3.7h-2.62v-3.7h-9.07v-2.5l8.2-10.55h3.5v10.85h2.35v2.2h-2.35ZM869.1,512.92l-6.12,8.15h6.12v-8.15Z"/>
    </g>
  </g>
  <g>
    <path d="M725.68,1938.86l-112.77-55.34c-21.64-10.62-37.56-27.11-50.64-46.91-9.17-13.87-20.27-24.31-34.54-32.75l-105.56-62.42c-7.29-4.31-12.82-11.52-16.87-18.74l-30.83-55.03-88.86-157.57c-10.37-18.38-22.72-30.07-42.34-37.47-17.37-6.55-33.32-16.16-50.91-25.4l48.39-105.85,69.13-142.95c10.58-21.88,27.88-37.75,46.28-52.68,27.33-22.19,8.09-28.91,23.36-45.73,10.37-11.42,19.4-22.79,29.01-34.89,13.52-17.04,30.61-29.84,47.33-43.58,17.19-14.12,34.46-25.09,56.09-33.18l.47-40.92c18.52-16.71,32.61-28.53,59.12-23.44l54.01-51.15.48-23.15c.27-12.97,18.14-5.34,28.71-27.69l20.89-44.18-20.11-70.96c9.03-12.45,17.76-24.68,23.81-38.15,12.48-27.75-7.69-36.03-17.45-71.42-2.85-10.34,7.55-22.71,14.99-28.47,10.7-8.28,15.26-17.01,20.64-28.68,12.92-27.98,25.44-55.22,37.09-84l34.68-85.67-44.71-22.52,30.16-55.19,50.39,29.85-6.96,43.41,11.25,4.24,8.93-15.83,61.16,8.15c22.02,2.93,43.29,1.1,63.34-9.12,24.53-12.5,48.76-24.09,73.99-35.2,10.33-4.55,17.82-10.16,25.55-18.49,40.84-43.99,80.42-87.88,114.17-137.87l65.4-96.86c16.15,4.57,29.22,16.36,32.88,33.27l14.9,68.95,70.73-3.35c27,22.02,36.75,28.47,54.17,60.06,19.09,34.62,34.27,70.15,50.01,106.33,14.72,2.48,27.62-1.65,40.2-7.95,14.62-7.33,28.77-11.95,45.04-17.59l6.99,32.94c-36.89,18.61-51.41,24.86-93.96,30.47l31.64,44.36c20.04-5.36,37.48-11.74,56.59-18.77,5.04-1.85,35,6.2,37.59,10.84l-43.78,139.06,94.34,46.82c2.77,1.37,9.1,1.43,11.86,3.46,15.5,8.19,30.58,14.9,44.73,24.96,21.57,15.34,42.94,29.02,66.55,40.9l37.95,19.12,113.09,68.9-102.39,88.79c-19.64,17.03-35.28,35.94-52.39,55.56-30.44,29.23-57.32,59.67-83.27,93.09l-65.34,84.18c-15.09,19.44-29.08,38.23-41.83,59.24-9.05,14.91-14.58,30.94-22.5,46.33-8.91,17.33-16.94,33.03-22.41,52.09l-55.74,194.37c-17.12,59.72-38.6,115.87-62.06,173.2l-51.36,125.54c-26.21,64.07-53.1,126.36-83.88,188.55l-107.58-17.41-13.16,57.2-33.58-2.87-107.18-7.02c-76.31-5-36.92-12.84-120.5,14.64l-68.67-44.21-.09-24.26c0-.79-1.74-3.25-2.3-3.13l-19.88,4.06,2.74,23.76-54.43,29.29ZM1316.72,201.43l46.88,13.18,14.12,90.37c.95,7.39,6.01,17.87,2.38,24.95l-32.86,64.23,72.97,15.86c16.74,3.64,31.89,6.55,50.04,8.98l-35.39-50.06c-.76-1.08-2.16-4.16-1.31-4.97s3.56-2.19,4.84-2.4c46.72-7.67,44.9-5.71,90.62-27.54l-4.49-20.06c-12.45,4.62-23.4,8.02-34.56,13.73-15.78,8.08-32.16,12.96-50.2,8.92-15.85-36.22-30.85-71.63-49.66-106.18-16.98-31.19-24.88-37.48-51.85-59.33l-74.09,3.38-16.09-74.49c-2.74-12.68-11.68-22.12-23.51-26.25l-62.36,92.32c-33.5,49.59-72.71,93.22-113.21,136.93-7.89,8.52-15.55,15.36-25.98,20.11l-43.94,20.03c-2.63,31.75-5.43,61.81-12.8,93.2,10.43,5.32,21.37,7.48,32.63,7.45,23.6-.07,45.26,4.06,67.89,10.24l49.13,13.42c9.42,2.57,8.6,12.72,9.93,21.51l6.42-20.34-71.32-17.95c-1.61-.41-4.48-2.28-4.31-3.42.17-1.15,1.29-3.73,2.27-4.74,18.94-19.5,37.21-40.42,53.14-62.35,24.13-33.22,63.75-9.1,74.21-18.53,17.73-15.98,32-34.29,46.09-53.29,15.43-20.81,12.88-32.36,26.34-52.63l58.04-54.26ZM1373.71,1108.31c11.19,6.96,20.98,16.25,33.5,19.1,27.5,6.26,53.33,13.81,79.97,22.94,12.69,4.35,24.31,8.76,34.49,18.32,13.2-34.6,31.88-63.44,53.85-91.88l79.23-102.57-43.52-36.78c-15.86-13.41-33.8-20.49-55.7-22.31l5.49-128.83c.52-9.09.72-17.92,1.86-26.57l9.67-73.12-139.55-30.64c-.21-21.25,3.42-40.78,5.96-61.68l8.85-72.86-14.04-12.01,71.68-78.96c-29.04-2.75-55.24-6.78-82.7-12.72l-85.84-18.56,36.3-71.01c3.17-6.2-1.98-16.31-2.52-22.96l-13.16-85.16-39.25-10.76c-18.58,16.87-36.19,32.77-53.67,50.75-8.3,8.53-11.66,31.11-24.58,49.38-14.5,20.49-30.21,39.77-48.44,57.08-7.79,7.4-20.22,3.83-29.54,3.2-17.49-3.4-34.65.7-44.98,15.19-15.2,21.33-31.81,39.98-50.41,59.89l74.7,18.99-9.07,29.96,155.29,37.41-3.3,48.8c-1.13,16.77-9.52,28.15-14.68,42.99-12.98,37.35-19.5,76.19-30.2,114.45-2.6,9.29-6.37,17.5-13.47,24.01l-40.24,36.92c-8.39,7.7-17.52,17.81-19.33,29.3l-9.39,59.59c-3.21,20.4-4.74,39.61-5.89,60.92,13.96,12.3,28.73,21.35,45.62,29.08l58.91,26.93c36.03,16.47,59.46,50.53,76.64,85.5,14.43,5.89,28.1,10.42,41.44,18.72ZM842.89,671.07l35.93,12.68,39.06-84.66c5.42-11.75,9.09-23.78,12.01-36.53l24.79-108.2c8.25-36.02,15.66-70.32,16.37-107.27l-22.02,11.27c-21.95,11.24-45.15,14.6-69.63,11.3l-57.09-7.67-8.96,16.5c-8.12-1.95-15.06-4.5-22.98-8.38l7.11-44.03-39.95-23.79-23.37,42.62,44.02,22.1-4.39,11.14-30.5,75.21c-11.98,29.53-24.23,57.53-37.98,86.19-4.27,8.89-7.61,19.07-14.54,25.8-8.74,8.49-27.01,21.33-21.26,34.69,2.16,5.03,6.09,8.47,11.49,11.22,16.36,8.33,32.14,17.58,50.88,17.91l61.53,1.08c18.41.32,32.95,11.51,38.68,28.43,1.54,4.55,6.53,10.88,10.81,12.39ZM1445.63,597.43c-2.25,18.08-5.44,35.15-5.34,53.01l131.81,28.83,44.09-81.76-99.67-50.25,43.91-139.85c-9.63-3.18-19.29-6.24-27.71-7.37l-55.66,19.75c8.64,4.92,48.48-.7,38.03,10.74l-71.15,77.94c7.49,5.4,11.45,10.57,10.43,18.78l-8.74,70.19ZM1118.03,483.4c.42-3.93-2.29-9.16-6.19-10.2l-50.73-13.44c-21.37-5.66-42.01-9.14-64.29-9.09-11.48.03-21.76-2.62-32.71-7.16l-21.16,94.79c-4.49,20.1-9.44,38.65-16.54,59.25,24.2,8.37,50.56,12.08,77.05,12.15l4.47-42.22,103.56,17.36c8.9-40.49,2.3-61.94,6.55-101.44ZM1242.31,1164.73l97.83-63.6-13.57-7.01c-16.14-34.07-38.28-67.27-72.86-83.11l-59.19-27.11c-18.55-8.5-34.6-18.48-50.3-32.46.55-23.27,2.96-45.61,6.38-68.93,2.82-19.25,5.07-37.49,9.06-56.7,2.33-11.23,10.13-22.28,18.55-30.01l39.55-36.27c5.76-5.29,11.65-12.04,13.69-19.77l31.38-119.16c3.81-14.46,13.43-24.74,14.49-40.98l2.81-43.05-156.86-37.96.17,45.5c.1,26.67-6.64,51.91-13.5,77.51l-25.92,96.73c-1.93,7.2-7.04,17.03-7.15,23.88-.41,26,1.49,49.57,2.74,75.32,23.72,3.98,38.32-1.21,60.9,2.71l.49,80.17c.1,16.43-4.17,29.98-10.15,45.09-19.88,50.31-36.13,101.31-48.67,153.95-1.57,6.57-3.11,10.94-8.95,15.25l114.73,54.01-.06,9.94c19.95,4.16,37.09-2.7,54.42-13.97ZM1071.93,735.06l22.9-85.01,15.43-58.05-96.1-16.3-4.52,40.82c-30.34.93-58.25-3.63-86.22-12.18l-37.57,81.78,186.07,48.95ZM1659.5,968.66c23.34-30.16,46.35-54.22,71.93-78.99,19.4-22.16,37.57-43.44,59.88-62.71l90.56-78.22-102.14-62.18c-9.93-6.04-20.12-10.17-30.44-15.38-28.45-14.1-54.95-29.62-80.22-48.88l-45.26-23.87-43.89,80.92-10.01,77.86-3.02,62.68-4.03,89.39c20.56,2.04,37.28,9.96,52.22,22.4l44.4,36.98ZM765.45,942.93l39.69-108.11c6.46-16.95,13.26-32.67,22.55-47.99,7.47-10.17,13.58-20.55,18.77-32.11l29.01-64.62-31.47-11.03c-9.47-3.32-16.1-10.54-19.34-19.98-4.41-12.84-16.05-20.96-30.03-21.79-49.34-2.92-71.75,7.09-116.12-19.65.78,3.99,2.41,8.24,4.72,11.63,17.74,26.07-2.77,56-20.04,78.39l19.93,71.2c-7.32,14.49-13.85,27.36-19.89,41.62-4.73,11.17-11.98,20.24-23.58,25.47,14.96,17.86,4.51,1.57,15.59,13.08,2.15,2.24,5.41,3.91,7.97,5.96,33.74,27.02,67.15,53.6,102.26,77.95ZM1075.81,1095.96c12.48-52.41,28.68-101.9,47.61-151.37,3.74-9.76,8.7-18.98,9.42-29.17,2.13-30.13,1.44-58.25.51-89.53l-38.68.22c-7.67-.47-15.05-1.56-22.01-4.18l-3.73-80.42-122.43-32.07-63.9-17.27c-10.84,21.9-20.55,44-30.22,66.5-4.86,11.32-11.35,20.88-18.05,31.1-10.27,15.68-16.89,32.63-23.67,50.25-14,36.37-27.29,71.35-39.53,108.83,14.38,12.04,28.18,21.24,43.97,29.57l43.2,22.8,152.84,85.55,44.78,19.45c5.26,2.28,7.77,4,12.23,2.31,5.79-2.2,6.05-5.76,7.67-12.57ZM379.39,1111.38c3.53,33.89-26.21,40.13-44.12,63.08l180.36,74.92,100.45,44.56,159.36-332.33c-13.78-12.42-28.32-22.56-42.81-33.65l-66.52-50.93c-5.85-4.48-12.04-7.82-16.23-14.6l-16.71-6.83-.57,20-59.32,56.55c-23.42-7.37-37.47,3.34-54.1,18.77l-.28,41.25c-11.97,6.48-24,10.31-34.85,17.52-19.19,12.75-36.37,27.23-53.71,42.3-11.04,9.59-18.83,21.29-28.16,32.35l-22.81,27.05ZM1058.95,1121.84c-.08-6.14-6.04-10.71-10.56-11.68l-48.06-20.67-153.95-86.76c-21.98-12.39-43.88-21.64-65.2-36.93l-158.88,331.28,90.2,42.77,203.62,91.88,142.82-309.89ZM1376.03,1353.17l77.39,22.87,42.79-149.38c5.32-18.57,12.36-34.96,21.7-51.12-9.29-10.97-22.09-14.73-34.94-19.16-25.35-8.73-49.78-16.04-76.15-21.76-19.8-4.29-36.75-24.31-57.85-30.78l-102.26,66.44c-18.81,12.22-38.22,19.56-61,15.49l-26.81,51.67c-9,17.35-16.18,34.87-21.26,53.64,24.34.66,45.47,4.99,67.5,11.98,28.15,8.94,55.48,16.47,84.31,23.39,29.72,7.2,56.57,17.85,86.59,26.72ZM1451.54,1382.85l-76.56-22.69c-31.83-9.43-61.49-20.95-93.95-28.62-28.32-6.69-55-14.56-82.67-23.23-23.2-7.27-45.12-10.2-70.48-10.57,4.91-15.81,8.54-30.4,15.45-43.99l33.05-64.97c2.49-4.8,4.12-10.18,4-15.67l-112.8-53.15-145.12,314.88c21.89,11.53,41.09,22.92,61.14,35.89l125.31,81.09c8.15,5.28,15.84,7.89,23.51,14.17,14.04,11.49,27.37,25.85,44.89,32.47l171.8,64.84,27.51-65.43c14.58-34.69,28.43-68.2,40.71-103.95,12.66-36.87,23.19-72.87,34.2-111.08ZM414.88,1342.52c2.5-7.74-1.24-17.75-.26-25.86,4.88-5.62,11.68-10.72,18.19-15.46,4.93-4.33,12.97-10.04,14.75-16.45l13.95-50.22-131.12-54.49c-7.44,8.92-13.01,18.53-18.38,29.56l-64.04,131.67c8.37,7.59,14.28,15.23,20.71,23.82,11.91,15.92,27.94,27.25,44.51,37.9l49.61,31.86c21.44-20.96,42.59-62.92,52.08-92.32ZM416.08,1488.68c7.53,7.6,9.83,20.59,14.28,31.45l24.9,1.01,34.73,37.53,81.97-161.66c16-31.56,28.72-62.55,40.77-96.75-47.79-23.09-94.88-42.4-144.45-62.93l-13.05,46.49c-1.98,7.04-7.39,13.96-13.06,18.56l-20.46,16.65c-.32,8.94,2.33,18.75-.28,26.46-11.24,33.16-28.98,66.45-51.55,92.97,23.26,22.69,10.92,27.51,46.22,50.22ZM758.36,1647.14l15.59,8.79,2,10.27,82.99,23.64c6.57-2.87,10.07-9.83,13.18-16.1,25.24-50.79,13.53-59.9,29.98-108.83-1.02-16.26,2.31-32.12,10.07-46.79l33.21-62.75c-24.16-13.95-48.07-25.07-73.79-35.45l-156.39-71.09-96.18-45.35c-9.85,27.13-19.16,52.67-31.94,78.07l-93.37,185.48-14.07,22.22,74.78,29.59c30.22,11.96,30.5,28.34,76.9,47.79l51.06,21.4c8.75,3.67,20.21,8.04,29.02,11.03,2.5-.56,6.12-4.89,7.17-6.94s-3.04-7.43-2.53-9.76c3.99-12.59,17.86-20.19,30.02-23.93,5.7-1.75,7.75-5.2,12.31-11.29ZM451.77,1527.83l-26.58-.7c-4.3-12.45-7.72-23.98-13.66-33.78-15.94-9.35-27.96-20.59-35.64-37.48-3.07-6.74-10.23-10.99-16.4-14.94l-54.37-34.85c-16.96-10.87-32.45-23.41-44.22-39.59-4.74-6.51-8.75-11.99-15.8-17.47l-43.75,95.16c15.44,8.07,30.06,16.57,45.79,22.61,19.64,7.54,33.03,19.65,43.5,38.14l92.67,163.56,62.58-54.6c16.24-14.17,30.17-29.7,40.56-48.58l-34.69-37.48ZM1016.76,1711.01l18.64-33.49,17.01-.34c4.52-19.55-5.73-30.7-2.69-49.31,13.47-8.18,24.08-17.36,33.27-29.61l27.81-37.07-22.3-13.73-136.79-88.62-33.29,62.39c-7.55,14.14-10.49,29.27-9.35,44.99-16.68,49.48-4.74,56.97-29.81,109.02-4.23,8.79-8.25,16.58-17.79,21.48l43.62,113.15,81.93-9.17,40.32-63.67-10.57-26.01ZM1010.59,1859.26l14.39,4.8c-2.46,10.91-5.05,19.64-8.7,29.29l-14.83,39.15,93.36,6.03c9.57.62,18.65,1.71,29.07,2.97l13.72-57.97,108.89,17.47c37.66-76.71,69.6-152.73,100.22-231.09l-157.03-58.39c-13.16-4.89-24.32-10.94-35.63-18.59l-36.27-29.2-27.67,36.79c-9.66,12.85-20.2,22.83-34.13,31.81.14,18.99,10.17,33.33.2,51.77l-16.82.54-14.73,27.04,10.46,26.23-40.86,64.71c13.36,4.74,21.94,9.03,29.67,19.74l-19,23.67c-.99,3.58,2.29,12.12,5.69,13.26ZM635.4,1886.15l64.19-143.05c5.41-12.05,10.25-23.93,13.7-36.03-13.13-4.49-23.4-8.22-35.07-13.14l-52.13-21.97c-43.82-18.47-44.54-34.91-76.89-47.67l-74.44-29.35c-9.45,10.2-18.12,19-28.18,27.76l-59.92,52.2,26.3,47c3.14,5.6,7.96,10.18,13.27,13.89l105.4,62.28c14.99,8.86,26.77,19.92,36.34,34.53,17.51,26.72,37.11,41.78,67.42,53.54ZM994.13,1931.38l11.58-29.95c4.27-11.05,7.88-21.54,11.4-32.63l-15.15-4.72-5.13-19.65,18.09-22.12c-10.45-10.39-23.74-15.23-38.05-13.58l-76.23,8.8-47.41-122.07-81.83-23.19c-2.23-.63-3.51-5.01-3.47-6.57-.02-2.33-1.06-6.6-2.63-7.22-1.31-.52-4.04-1.17-5.1-1.25-9.64,11.43-26,7.03-36.81,25,4.5,6.73,1.32,10.85-.47,16.72-4.62,15.17-9.1,29.75-15.85,44.8l-65.6,146.22,83.87,41,46.87-24.96-2.19-26.12,36.21-6.3.69,32.09,62.23,39.88c75.3-24.55,45.29-19.55,124.99-14.17Z"/>
    <path d="M868.25,1953.9l-.2-.13-68.9-44.36-.09-24.54c0-.51-1.28-2.37-1.78-2.63l-19.36,3.95,2.72,23.64-.3.16-54.66,29.41-113-55.45c-19.65-9.64-36.28-25.04-50.84-47.08-9.07-13.73-19.99-24.08-34.38-32.59l-105.56-62.42c-6.4-3.78-12.14-10.15-17.05-18.93l-30.83-55.03-88.86-157.56c-10.74-19.03-23.32-30.17-42.08-37.25-13.1-4.94-25.26-11.54-38.14-18.54-4.16-2.26-8.47-4.6-12.83-6.89l-.42-.22,48.59-106.28,69.14-142.96c10.03-20.73,25.8-36.12,46.41-52.85,15.51-12.59,15.85-20.11,16.18-27.39.25-5.4.5-10.99,7.12-18.29,10.53-11.6,19.91-23.43,28.99-34.87,11.55-14.56,26-26.27,39.97-37.6,2.48-2.01,4.96-4.02,7.43-6.05,18.79-15.44,36.05-25.67,55.91-33.14l.47-40.79.16-.15c17.1-15.43,31.88-28.77,59.3-23.6l53.67-50.83.47-22.94c.13-6.28,4.22-8,9.39-10.18,6.12-2.58,13.73-5.79,19.37-17.71l20.81-44.01-20.13-71.01.14-.2c8.21-11.32,17.51-24.15,23.76-38.06,7.81-17.37,2.59-27.16-4.64-40.72-4.33-8.13-9.24-17.35-12.83-30.36-2.88-10.44,7.49-23.06,15.17-28.99,10.6-8.2,15.18-16.98,20.5-28.5,11.74-25.44,25.05-54.27,37.08-83.98l34.51-85.25-44.76-22.55,30.66-56.1,51.12,30.29-6.95,43.34,10.47,3.95,8.89-15.75,61.5,8.2c24.14,3.22,44.76.25,63.05-9.07,25.44-12.97,49.66-24.48,74.02-35.21,9.88-4.35,17.47-9.84,25.38-18.37,40.73-43.87,80.1-87.42,114.12-137.8l65.6-97.16.35.1c17.31,4.9,29.73,17.48,33.23,33.65l14.81,68.53,70.5-3.34.15.12c2.08,1.69,4.05,3.29,5.93,4.82,22.8,18.49,32.23,26.14,48.36,55.39,17.98,32.6,32.19,65.32,47.25,99.97l2.67,6.15c15.88,2.59,29.51-2.88,39.62-7.95,13.15-6.59,25.66-10.91,40.15-15.91l5.48-1.9,7.18,33.87-.34.17c-35.88,18.1-50.61,24.73-93.3,30.41l30.96,43.4c20.07-5.38,37.63-11.84,56.22-18.67,5.02-1.84,35.42,6.08,38.2,11.06l.11.19-.07.21-43.65,138.65,93.96,46.63c1.12.56,2.92.9,4.83,1.25,2.67.5,5.43,1.02,7.1,2.25,3.8,2,7.68,3.97,11.43,5.88,11.64,5.92,22.64,11.5,33.29,19.08,24.65,17.53,45.16,30.13,66.49,40.86l37.95,19.12,113.71,69.28-102.9,89.24c-17.01,14.75-30.89,30.78-45.6,47.74-2.23,2.58-4.47,5.17-6.75,7.77-29.11,27.96-56.33,58.39-83.25,93.07l-65.34,84.18c-16.17,20.82-29.46,38.86-41.8,59.2-5.42,8.93-9.65,18.44-13.75,27.64-2.73,6.14-5.56,12.5-8.73,18.65-8.67,16.86-16.86,32.78-22.37,52l-55.74,194.37c-18.19,63.42-41.58,123.17-62.07,173.25l-51.36,125.54c-31.14,76.12-57.02,134.28-83.89,188.59l-.16.33-.36-.06-107.12-17.34-13.15,57.17-34.01-2.9-107.17-7.02c-19.17-1.26-30.86-2.67-39.4-3.7q-19.72-2.38-50.38,8.07c-7.92,2.7-17.77,6.06-30.53,10.25l-.23.08ZM800.15,1908.87l68.24,43.93c12.65-4.16,22.43-7.49,30.3-10.17q30.88-10.52,50.82-8.11c8.53,1.03,20.2,2.44,39.34,3.7l107.18,7.02,33.16,2.83,13.17-57.23.46.07,107.21,17.35c26.81-54.19,52.63-112.25,83.7-188.19l51.36-125.54c20.48-50.06,43.87-109.77,62.04-173.15l55.74-194.37c5.54-19.31,13.75-35.28,22.44-52.18,3.15-6.13,5.98-12.47,8.7-18.6,4.11-9.23,8.36-18.77,13.81-27.76,12.37-20.38,25.68-38.44,41.87-59.29l65.34-84.18c26.95-34.72,54.2-65.18,83.32-93.14,2.24-2.57,4.48-5.16,6.71-7.73,14.73-17,28.63-33.05,45.7-47.84l101.87-88.35-112.5-68.54-37.91-19.1c-21.38-10.76-41.92-23.38-66.62-40.94-10.59-7.53-21.56-13.1-33.17-19-3.76-1.91-7.64-3.88-11.51-5.93-1.55-1.14-4.2-1.63-6.76-2.12-1.97-.37-3.84-.72-5.09-1.34l-94.72-47.01.13-.41,43.71-138.84c-3-4.19-31.65-12.36-36.87-10.44-18.71,6.88-36.38,13.37-56.64,18.78l-.33.09-32.33-45.32.83-.11c43.02-5.67,57.71-12.21,93.46-30.24l-6.79-32.01-4.41,1.52c-14.46,4.99-26.94,9.3-40.03,15.86-10.3,5.17-24.22,10.74-40.5,8l-.27-.04-2.89-6.65c-15.04-34.63-29.25-67.33-47.2-99.89-16.04-29.07-25.43-36.69-48.12-55.09-1.84-1.49-3.76-3.05-5.79-4.7l-70.96,3.36-.09-.41-14.9-68.95c-3.39-15.7-15.41-27.94-32.18-32.8l-65.2,96.56c-34.06,50.44-73.46,94.02-114.21,137.93-8.01,8.63-15.7,14.19-25.71,18.6-24.35,10.72-48.54,22.23-73.97,35.19-18.47,9.41-39.29,12.41-63.63,9.17l-60.83-8.11-8.98,15.91-12.03-4.54,6.97-43.48-49.65-29.42-29.67,54.28,44.66,22.49-34.86,86.1c-12.03,29.73-25.35,58.57-37.1,84.02-5.37,11.64-10.01,20.53-20.79,28.87-7.46,5.77-17.56,17.97-14.81,27.94,3.56,12.91,8.44,22.07,12.75,30.16,7.36,13.81,12.68,23.79,4.67,41.6-6.26,13.92-15.52,26.73-23.72,38.04l20.1,70.91-20.97,44.35c-5.8,12.27-13.94,15.7-19.89,18.2-5.03,2.12-8.66,3.65-8.78,9.28l-.48,23.36-.15.14-54.19,51.32-.25-.05c-27.01-5.18-41.64,7.93-58.53,23.17l-.47,41.04-.32.12c-19.89,7.44-37.15,17.65-55.95,33.1-2.48,2.03-4.96,4.05-7.44,6.06-14.57,11.81-28.33,22.97-39.81,37.44-9.08,11.45-18.48,23.29-29.03,34.92-6.38,7.03-6.62,12.2-6.86,17.66-.34,7.49-.69,15.24-16.55,28.12-20.5,16.65-36.2,31.95-46.14,52.51l-69.13,142.95-48.19,105.41c4.22,2.22,8.39,4.48,12.42,6.67,12.85,6.98,24.99,13.57,38.02,18.48,19,7.16,31.74,18.44,42.6,37.69l88.86,157.57,30.83,55.03c4.83,8.62,10.45,14.87,16.69,18.56l105.56,62.42c14.52,8.59,25.55,19.04,34.71,32.9,14.46,21.88,30.96,37.17,50.44,46.73l112.54,55.23,53.91-29.01-2.75-23.88,20.33-4.15c.26-.05.55.05.87.31.76.62,2.03,2.45,2.03,3.31l.09,23.99ZM869.07,1946.1l-62.65-40.16-.68-31.78-35.18,6.12,2.18,25.99-47.39,25.24-84.53-41.33.2-.44,65.6-146.22c6.88-15.34,11.43-30.29,15.83-44.74.35-1.14.74-2.2,1.12-3.23,1.62-4.38,2.9-7.83-.59-13.06l-.18-.26.16-.27c6.26-10.42,14.23-13.38,21.93-16.23,5.59-2.08,10.88-4.04,14.92-8.83l.17-.2.26.02c1.15.09,3.95.77,5.25,1.29,1.9.75,2.93,5.4,2.95,7.68-.03,1.56,1.25,5.57,3.11,6.1l82.07,23.26,47.36,121.94,75.85-8.75c14.45-1.67,27.75,3.08,38.46,13.73l.32.32-18.21,22.27,5,19.13,15.37,4.79-.15.48c-3.82,12.02-7.45,22.4-11.41,32.66l-11.71,30.29-.37-.02c-15.76-1.06-27.03-2.09-36.08-2.92q-29.67-2.71-63.19,8.58c-6.79,2.29-15.24,5.13-25.54,8.49l-.23.07ZM807.4,1905.39l61.81,39.61c10.19-3.32,18.56-6.14,25.3-8.41q33.72-11.36,63.6-8.63c8.98.82,20.13,1.84,35.69,2.89l11.44-29.61c3.91-10.11,7.48-20.33,11.24-32.12l-14.94-4.65-5.27-20.16,17.96-21.96c-10.43-10.2-23.32-14.73-37.31-13.12l-76.62,8.84-.14-.36-47.32-121.83-81.59-23.13c-2.6-.74-3.87-5.54-3.84-7.07-.02-2.54-1.15-6.28-2.31-6.74-1.21-.48-3.59-1.05-4.71-1.19-4.19,4.85-9.52,6.83-15.16,8.92-7.47,2.77-15.2,5.64-21.26,15.54,3.56,5.52,2.08,9.49.52,13.7-.38,1.02-.77,2.07-1.1,3.18-4.41,14.48-8.97,29.46-15.88,44.86l-65.4,145.78,83.21,40.67,46.36-24.69-2.2-26.25.45-.08,36.78-6.4.69,32.41ZM1124.26,1942.05l-.44-.05c-9.95-1.2-19.35-2.34-29.04-2.96l-94.03-6.08,15.07-39.79c3.57-9.43,6.14-18.06,8.58-28.78l-13.96-4.65c-3.72-1.24-7.08-10.03-6.01-13.87l.09-.18,18.76-23.37c-7.42-10.14-15.69-14.46-29.21-19.25l-.59-.21,41.05-65.02-10.45-26.21,14.98-27.5,16.82-.54c6.31-11.86,4.23-22.12,2.03-32.97-1.17-5.78-2.38-11.76-2.43-18.31v-.28s.23-.15.23-.15c13.65-8.81,24.14-18.58,34-31.69l27.98-37.2,36.67,29.53c11.87,8.04,23.16,13.93,35.49,18.52l157.5,58.57-.18.47c-35.7,91.34-66.61,162.63-100.24,231.12l-.16.33-108.79-17.45-13.72,57.96ZM1002.16,1932.04l92.68,5.99c9.57.62,18.85,1.73,28.65,2.92l13.73-57.99.46.07,108.52,17.41c33.5-68.26,64.31-139.29,99.86-230.24l-156.55-58.22c-12.41-4.61-23.76-10.54-35.74-18.65l-35.9-28.9-27.36,36.37c-9.88,13.14-20.38,22.95-34.03,31.78.08,6.34,1.26,12.19,2.41,17.84,2.25,11.11,4.38,21.61-2.27,33.9l-.14.25-16.82.54-14.48,26.58,10.47,26.25-40.66,64.39c13.5,4.83,21.8,9.28,29.32,19.71l.22.31-19.17,23.89c-.84,3.4,2.23,11.5,5.39,12.55l14.82,4.94-.1.44c-2.48,10.97-5.09,19.75-8.72,29.35l-14.59,38.52ZM635.67,1886.78l-.44-.17c-30.9-11.99-50.5-27.55-67.66-53.74-9.49-14.47-20.98-25.4-36.18-34.37l-105.4-62.28c-6.09-4.26-10.61-8.99-13.46-14.08l-26.49-47.36,60.23-52.47c8.93-7.78,17.35-16.07,28.14-27.72l.23-.25.32.13,74.44,29.35c15.28,6.03,23.67,12.98,32.56,20.34,9.93,8.24,21.19,17.57,44.34,27.32l52.13,21.97c12.05,5.08,22.72,8.92,35.03,13.13l.45.15-.13.46c-3.81,13.38-9.34,26.32-13.72,36.1l-64.39,143.48ZM387.31,1675.01l26.1,46.65c2.77,4.96,7.19,9.58,13.12,13.73l105.37,62.25c15.33,9.06,26.93,20.08,36.51,34.69,16.96,25.87,36.31,41.3,66.74,53.18l64-142.62c4.32-9.63,9.75-22.34,13.54-35.5-12.15-4.15-22.72-7.97-34.65-13l-52.13-21.97c-23.28-9.81-34.6-19.2-44.59-27.48-8.82-7.31-17.15-14.22-32.29-20.18l-74.12-29.23c-10.71,11.55-19.09,19.8-27.99,27.55l-59.61,51.93ZM904.76,1810.41l-.14-.36-43.78-113.57.4-.21c9.04-4.64,12.98-11.74,17.57-21.25,14.39-29.87,16.51-44.73,18.97-61.92,1.82-12.75,3.71-25.94,10.78-46.95-1.14-16.11,2.02-31.31,9.42-45.16l33.55-62.87.46.3,136.78,88.62,22.75,14.02-.33.44-27.8,37.07c-8.84,11.78-19.4,21.2-33.21,29.62-1.36,8.61.19,15.75,1.68,22.67,1.7,7.88,3.46,16.03,1.05,26.45l-.09.38-17.11.34-18.38,33.03,10.58,26.03-.14.22-40.45,63.87-.24.03-82.31,9.22ZM862.09,1696.95l43.32,112.38,81.31-9.1,40.05-63.25-10.56-26,18.89-33.95,16.9-.34c2.23-10.01.52-17.95-1.14-25.63-1.52-7.06-3.1-14.37-1.65-23.26l.04-.23.2-.12c13.8-8.38,24.33-17.75,33.13-29.48l27.48-36.63-21.83-13.45-136.34-88.33-33.04,61.91c-7.32,13.71-10.44,28.76-9.29,44.72v.1s-.02.1-.02.1c-7.07,20.97-8.95,34.13-10.77,46.86-2.47,17.28-4.6,32.2-19.06,62.21-4.6,9.55-8.58,16.71-17.61,21.5ZM711.36,1699.59l-.13-.04c-8.65-2.93-20.05-7.27-29.05-11.04l-51.06-21.4c-25.43-10.66-37.05-20.4-47.3-29-8.57-7.19-15.96-13.39-29.59-18.78l-75.34-29.81,14.39-22.73,93.35-185.44c12.9-25.63,22.14-51.07,31.92-78.01l.19-.52.5.23,96.18,45.35,156.38,71.09c28.11,11.34,51.58,22.62,73.83,35.47l.42.24-33.43,63.18c-7.67,14.49-11.04,30.14-10.01,46.52v.1s-.03.09-.03.09c-6.9,20.52-8.8,33.76-10.64,46.56-2.53,17.61-4.71,32.82-19.37,62.33-3.11,6.27-6.64,13.37-13.43,16.33l-.16.07-.17-.05-83.28-23.72-2.01-10.35-15.01-8.46c-.37.5-.73.98-1.07,1.44-3.72,5.02-5.96,8.06-11.23,9.68-7.4,2.28-25.11,9.14-29.69,23.6-.19.89.57,2.62,1.3,4.28.96,2.19,1.86,4.25,1.2,5.55-1.12,2.2-4.81,6.6-7.5,7.21l-.14.03ZM480.39,1589.02l74.22,29.37c13.78,5.45,21.23,11.71,29.87,18.95,10.19,8.55,21.75,18.24,47.04,28.84l51.06,21.4c8.93,3.75,20.24,8.04,28.85,10.97,2.28-.64,5.68-4.65,6.7-6.65.45-.88-.44-2.91-1.23-4.7-.83-1.9-1.62-3.69-1.35-4.94,1.59-5.01,7.7-17.33,30.36-24.3,4.95-1.53,7-4.29,10.72-9.32.42-.57.87-1.17,1.33-1.79l.26-.35,16.17,9.12,1.98,10.2,82.52,23.5c6.35-2.87,9.76-9.73,12.77-15.79,14.59-29.37,16.77-44.51,19.28-62.03,1.84-12.82,3.74-26.08,10.65-46.64-1.02-16.54,2.39-32.33,10.13-46.96l32.98-62.33c-22.09-12.73-45.4-23.91-73.31-35.17l-156.41-71.1-95.69-45.12c-9.72,26.78-18.94,52.09-31.78,77.61l-93.37,185.48-13.77,21.75ZM383.19,1669.26l-92.98-164.09c-10.67-18.84-24.01-30.53-43.25-37.92-12.27-4.71-23.64-10.79-35.67-17.23-3.36-1.8-6.75-3.61-10.17-5.4l-.42-.22,44.21-96.17.5.39c7.16,5.57,11.21,11.13,15.89,17.57,10.43,14.33,24.43,26.87,44.08,39.46l55.54,35.6c5.85,3.73,12.48,7.95,15.41,14.41,7.06,15.53,17.99,27.02,35.44,37.26l.11.06.07.11c5.05,8.33,8.31,17.97,11.76,28.17.6,1.77,1.21,3.56,1.83,5.38l26.44.7,35.08,37.9-.17.32c-9.55,17.36-22.47,32.84-40.67,48.71l-63.04,55ZM202.01,1443.96c3.28,1.72,6.53,3.46,9.76,5.18,12.01,6.42,23.35,12.49,35.56,17.18,19.47,7.47,32.96,19.3,43.76,38.36l92.37,163.02,62.11-54.19c18-15.7,30.8-31,40.28-48.13l-34.3-37.06-26.72-.7-.11-.33c-.67-1.93-1.31-3.83-1.95-5.71-3.42-10.1-6.65-19.65-11.6-27.87-17.57-10.33-28.59-21.94-35.73-37.64-2.81-6.18-9.31-10.33-15.04-13.98l-1.17-.75-54.37-34.85c-19.76-12.66-33.85-25.28-44.35-39.71-4.53-6.23-8.46-11.62-15.2-16.98l-43.29,94.15ZM1349.39,1663.95l-.45-.17-171.8-64.84c-13.49-5.09-24.53-14.77-35.21-24.14-3.21-2.81-6.53-5.72-9.81-8.41-4.59-3.75-9.12-6.15-13.92-8.69-3.1-1.64-6.3-3.33-9.55-5.44l-125.31-81.09c-20.94-13.55-40.35-24.95-61.1-35.87l-.42-.22.2-.43,145.33-315.34,113.54,53.49v.31c.11,5.16-1.25,10.51-4.05,15.91l-33.05,64.96c-5.48,10.77-8.9,22.23-12.53,34.36-.88,2.93-1.76,5.9-2.7,8.92,26.41.44,48.01,3.71,69.96,10.58,23.76,7.44,52.16,16.02,82.64,23.22,20.49,4.84,40.24,11.33,59.34,17.62,11.25,3.7,22.88,7.52,34.63,11.01l77.03,22.83-.14.48c-11.27,39.11-21.63,74.46-34.21,111.1-12.35,35.95-26.31,69.7-40.72,103.98l-27.7,65.88ZM923.11,1434.63c20.62,10.87,39.94,22.22,60.76,35.7l125.31,81.09c3.22,2.08,6.4,3.77,9.48,5.4,4.84,2.56,9.42,4.98,14.08,8.8,3.3,2.7,6.63,5.62,9.84,8.43,10.61,9.3,21.58,18.92,34.91,23.95l171.35,64.67,27.33-64.99c14.41-34.27,28.36-68,40.7-103.92,12.52-36.47,22.84-71.67,34.06-110.57l-76.08-22.55c-11.77-3.49-23.41-7.32-34.66-11.02-19.08-6.28-38.82-12.77-59.26-17.59-30.51-7.21-58.93-15.79-82.71-23.23-22.04-6.9-43.73-10.16-70.34-10.55h-.67s.2-.65.2-.65c1-3.23,1.95-6.41,2.89-9.54,3.64-12.17,7.07-23.67,12.59-34.53l33.05-64.97c2.67-5.14,4-10.23,3.95-15.12l-112.06-52.8-144.71,313.99ZM490.1,1559.54l-35.07-37.9-25.01-1.02-.12-.3c-1.29-3.16-2.42-6.54-3.51-9.8-2.64-7.93-5.38-16.13-10.62-21.44-21.1-13.58-25.26-20.84-30.09-29.25-3.2-5.57-6.82-11.88-16.17-21l-.33-.33.3-.36c21.43-25.17,39.71-58.13,51.46-92.8,1.63-4.82,1.17-10.4.69-16.32-.27-3.31-.55-6.73-.43-10v-.23s.18-.14.18-.14l20.46-16.65c6.19-5.04,11.13-12.06,12.89-18.31l13.21-47.04,8.33,3.45c46.99,19.46,91.38,37.83,136.66,59.71l.4.19-.15.42c-12.87,36.55-25.84,67.31-40.79,96.81l-82.29,162.3ZM430.69,1519.64l24.78,1.01.14.15,34.24,37,81.64-161.02c14.88-29.35,27.78-59.95,40.59-96.27-45.12-21.78-89.37-40.1-136.2-59.49l-7.29-3.02-12.9,45.95c-1.84,6.54-6.78,13.57-13.22,18.81l-20.29,16.5c-.1,3.15.17,6.46.44,9.66.47,5.76.96,11.71-.74,16.72-11.74,34.63-29.96,67.56-51.34,92.78,9.2,9.04,12.81,15.34,16,20.9,4.76,8.3,8.87,15.47,29.81,28.94l.08.07c5.44,5.48,8.21,13.81,10.9,21.87,1.05,3.15,2.13,6.4,3.36,9.44ZM362.86,1435.47l-49.95-32.07c-15.09-9.69-32.23-21.42-44.64-38.02-6.4-8.55-12.36-16.24-20.64-23.75l-.28-.25.16-.34,64.04-131.67c6.09-12.52,11.78-21.67,18.44-29.66l.24-.28.34.14,131.53,54.66-14.07,50.65c-1.52,5.46-7.41,10.4-12.15,14.36-.98.82-1.91,1.6-2.75,2.33-6.52,4.74-13.25,9.8-18.04,15.29-.38,3.39.07,7.21.5,10.9.6,5.1,1.22,10.38-.24,14.9l-.48-.15.48.15c-9.71,30.11-30.77,71.55-52.21,92.52l-.28.28ZM248.58,1341.14c8.2,7.49,14.14,15.14,20.5,23.64,12.31,16.47,29.37,28.13,44.38,37.78l49.28,31.64c21.23-20.94,42.04-61.98,51.67-91.83,1.39-4.32.79-9.48.2-14.48-.45-3.81-.91-7.74-.48-11.29l.02-.15.1-.12c4.88-5.62,11.7-10.75,18.28-15.53.81-.72,1.75-1.5,2.73-2.32,4.63-3.88,10.4-8.7,11.83-13.86l13.83-49.8-130.37-54.18c-6.51,7.86-12.1,16.88-18.08,29.17l-63.88,131.33ZM916.38,1432.39l-204.07-92.09-90.66-42.99.22-.45,159.14-331.82.48.35c14.3,10.26,29.17,17.95,43.56,25.4,7.07,3.66,14.38,7.44,21.59,11.5l153.95,86.76,48.01,20.65c4.27.91,10.77,5.43,10.87,12.13v.11s-.05.1-.05.1l-143.03,310.34ZM622.98,1296.84l89.75,42.55,203.16,91.67,142.57-309.34c-.15-5.84-5.98-10.19-10.17-11.09l-48.15-20.7-154-86.78c-7.2-4.06-14.5-7.83-21.56-11.49-14.25-7.38-28.99-15-43.2-25.12l-158.4,330.29ZM1453.76,1376.66l-77.87-23.01c-11.76-3.47-23.15-7.26-34.16-10.92-17.65-5.87-34.33-11.41-52.4-15.79-29.31-7.03-56.9-14.69-84.34-23.4-24.14-7.66-44.92-11.35-67.37-11.96l-.64-.02.17-.61c4.84-17.87,11.81-35.45,21.3-53.74l26.98-51.99.36.06c20.03,3.57,38.73-1.19,60.64-15.42l102.45-66.57.22.07c10.23,3.13,19.52,9.45,28.5,15.55,9.84,6.69,19.14,13.01,29.31,15.22,23.95,5.19,48.17,12.11,76.21,21.77l2.72.93c12.2,4.16,23.72,8.09,32.44,18.38l.23.27-.18.3c-9.53,16.5-16.41,32.71-21.65,51.01l-42.93,149.87ZM1376.17,1352.69l76.91,22.73,42.65-148.9c5.23-18.27,12.09-34.46,21.57-50.92-8.52-9.89-19.82-13.74-31.77-17.82l-2.73-.93c-28-9.65-52.19-16.55-76.1-21.74-10.36-2.25-19.74-8.62-29.66-15.37-8.85-6.02-18.01-12.24-28.01-15.35l-102.06,66.31c-22.01,14.3-40.84,19.13-60.99,15.63l-26.64,51.34c-9.35,18.02-16.24,35.34-21.06,52.93,22.3.66,43,4.36,67.01,11.99,27.41,8.7,54.98,16.35,84.27,23.38,18.11,4.39,34.81,9.94,52.48,15.81,11.01,3.66,22.39,7.44,34.13,10.91ZM616.33,1294.58l-.44-.2-100.45-44.56-180.96-75.17.4-.52c5.86-7.51,12.92-13.19,19.75-18.69,14.28-11.5,26.62-21.43,24.26-44.03l-.02-.21.14-.16,22.81-27.05c2.73-3.24,5.37-6.59,7.93-9.82,6.12-7.76,12.45-15.78,20.29-22.59,16.36-14.22,33.99-29.2,53.76-42.34,6.47-4.3,13.22-7.34,20.36-10.56,4.67-2.1,9.49-4.28,14.26-6.85l.28-41.17.16-.15c16.38-15.2,30.79-26.25,54.31-18.97l58.96-56.2.58-20.52,17.53,7.17.09.14c3.21,5.19,7.57,8.3,12.19,11.6,1.29.92,2.62,1.87,3.92,2.87l66.52,50.93c3.74,2.86,7.54,5.71,11.22,8.46,10.51,7.86,21.38,15.99,31.62,25.22l.28.25-.16.34-159.57,332.76ZM336.08,1174.25l179.75,74.67,100.02,44.37,158.99-331.55c-10.13-9.1-20.87-17.14-31.27-24.91-3.68-2.75-7.48-5.6-11.23-8.46l-66.52-50.93c-1.29-.99-2.61-1.93-3.89-2.85-4.66-3.33-9.07-6.47-12.38-11.75l-15.9-6.5-.55,19.48-.15.14-59.54,56.75-.28-.09c-23.15-7.28-36.78,3.06-53.45,18.52l-.28,41.33-.26.14c-4.88,2.65-9.82,4.87-14.59,7.02-7.11,3.2-13.82,6.23-20.22,10.48-19.72,13.1-37.32,28.06-53.65,42.26-7.76,6.75-13.78,14.38-20.16,22.45-2.56,3.24-5.2,6.59-7.95,9.85l-22.67,26.89c2.31,22.99-10.79,33.54-24.65,44.7-6.63,5.34-13.48,10.85-19.18,18.01ZM1199.75,1180.45c-3.97,0-7.93-.43-11.96-1.27l-.4-.08.05-10.03-115.19-54.24.67-.5c5.86-4.33,7.27-8.73,8.76-14.96,12.44-52.21,28.36-102.59,48.69-154.02,6.31-15.98,10.21-29.06,10.11-44.9l-.49-79.75c-10.98-1.86-19.91-1.57-29.35-1.26-9.42.31-19.16.63-31.13-1.38l-.4-.07-.02-.4c-.3-6.18-.64-12.23-.97-18.22-1.07-19.21-2.08-37.35-1.77-57.13.07-4.47,2.19-10.08,4.23-15.5,1.15-3.05,2.24-5.93,2.93-8.51l25.92-96.73c6.67-24.91,13.58-50.68,13.48-77.38l-.17-46.14.62.15,157.27,38.06-2.84,43.46c-.64,9.74-4.37,17.46-7.98,24.93-2.45,5.07-4.99,10.32-6.52,16.14l-31.38,119.16c-1.71,6.5-6.24,13.05-13.83,20.01l-39.55,36.27c-9.45,8.67-16.33,19.79-18.4,29.74-3.15,15.16-5.18,29.49-7.33,44.66-.56,3.97-1.13,7.97-1.72,12.02-3.9,26.59-5.86,47.77-6.37,68.64,14.78,13.13,30.68,23.37,50.01,32.23l59.19,27.11c29.26,13.4,52.47,39.84,73.03,83.2l14.19,7.33-.72.47-97.83,63.6-.27-.42.27.42c-16.03,10.42-29.45,15.31-42.83,15.31ZM1188.4,1178.29c17.18,3.47,33.25-.72,53.64-13.98l97.11-63.13-12.96-6.69-.07-.15c-20.47-43.22-43.55-69.55-72.62-82.87l-59.19-27.11c-19.5-8.93-35.52-19.27-50.43-32.54l-.17-.15v-.23c.5-20.98,2.47-42.26,6.39-68.99.59-4.04,1.16-8.04,1.72-12.01,2.15-15.19,4.19-29.53,7.34-44.72,2.11-10.15,9.1-21.47,18.7-30.27l39.55-36.27c7.45-6.83,11.88-13.22,13.54-19.53l31.38-119.16c1.56-5.92,4.12-11.21,6.59-16.32,3.57-7.38,7.26-15.02,7.88-24.56l2.78-42.62-155.83-37.71.16,44.87c.1,26.84-6.82,52.67-13.51,77.64l-25.92,96.73c-.7,2.62-1.8,5.53-2.96,8.6-2.02,5.34-4.1,10.87-4.17,15.16-.31,19.74.7,37.87,1.77,57.06.33,5.86.66,11.78.95,17.83,11.69,1.92,21.27,1.61,30.54,1.3,9.19-.3,18.69-.62,29.96,1.34l.41.07v.42s.49,80.17.49,80.17c.1,16-3.82,29.19-10.18,45.28-20.31,51.39-36.22,101.72-48.64,153.88-1.43,6.01-2.9,10.66-8.47,15.03l114.27,53.8-.05,9.85ZM1521.87,1169.55l-.54-.51c-10.01-9.4-21.46-13.81-34.31-18.21-28.09-9.62-53.49-16.91-79.92-22.93-9.06-2.06-16.86-7.57-24.4-12.89-3-2.12-6.09-4.3-9.25-6.27-10.45-6.5-21.02-10.65-32.21-15.04-3.02-1.19-6.07-2.38-9.16-3.64l-.18-.07-.08-.17c-21.75-44.29-46.03-71.38-76.4-85.26l-58.91-26.92c-17.94-8.2-32.48-17.46-45.75-29.16l-.18-.16v-.24c1.02-18.63,2.44-38.91,5.91-60.97l9.39-59.58c1.93-12.27,12.04-22.76,19.48-29.59l40.24-36.92c6.21-5.69,10.31-13.03,13.32-23.77,4.16-14.85,7.73-30.02,11.2-44.7,5.44-23.06,11.07-46.91,19.01-69.78,1.72-4.94,3.81-9.53,5.83-13.98,4.15-9.14,8.08-17.76,8.83-28.89l3.27-48.38-155.39-37.43,9.08-29.96-75.01-19.07.58-.62c19.56-20.95,35.62-39.14,50.37-59.84,9.64-13.52,26.21-19.13,45.48-15.39,1.79.12,3.74.35,5.79.6,8.08.98,17.23,2.1,23.31-3.68,16.49-15.65,32.32-34.3,48.37-57,6.68-9.44,10.77-19.99,14.38-29.29,3.33-8.58,6.2-15.98,10.26-20.15,16.86-17.34,33.78-32.69,51.69-48.95l2.21-2,39.82,10.92.05.32,13.16,85.16c.18,2.23.87,4.82,1.61,7.56,1.43,5.36,3.06,11.43.87,15.71l-36,70.43,85.2,18.42c27.39,5.92,53.65,9.96,82.64,12.71l1,.09-.67.74-71.33,78.57,13.85,11.85-8.89,73.13c-.61,4.99-1.28,9.97-1.94,14.78-2.13,15.66-4.14,30.46-4.02,46.44l139.61,30.65-.06.46-9.67,73.12c-.86,6.51-1.18,13.02-1.52,19.9-.11,2.2-.22,4.4-.34,6.63l-5.47,128.34c22.06,1.91,39.71,9.03,55.5,22.39l43.88,37.09-.29.38-79.23,102.57c-25.65,33.2-42.23,61.5-53.78,91.76l-.27.7ZM1332.63,1089.19c3.02,1.23,6.01,2.41,8.97,3.57,11.23,4.41,21.84,8.57,32.37,15.12,3.19,1.98,6.29,4.18,9.3,6.3,7.8,5.51,15.17,10.72,24.04,12.74,26.46,6.03,51.89,13.32,80.02,22.96,12.73,4.36,24.1,8.73,34.13,17.92,11.57-30.09,28.14-58.29,53.66-91.32l78.94-102.2-43.15-36.47c-15.74-13.31-33.35-20.36-55.42-22.19l-.48-.04.02-.48,5.49-128.83c.13-2.23.24-4.44.34-6.63.34-6.91.66-13.43,1.52-19.98l9.61-72.67-139.49-30.62v-.4c-.17-16.21,1.87-31.16,4.02-46.99.65-4.81,1.33-9.78,1.94-14.76l8.82-72.59-14.23-12.17.35-.38,71.01-78.22c-28.64-2.75-54.65-6.77-81.77-12.63l-86.47-18.7,36.6-71.59c2.01-3.94.51-9.56-.94-15-.74-2.78-1.45-5.41-1.63-7.7l-13.11-84.81-38.67-10.6-1.8,1.64c-17.9,16.25-34.81,31.59-51.64,48.91-3.92,4.03-6.75,11.34-10.04,19.82-3.63,9.35-7.74,19.96-14.49,29.5-16.1,22.76-31.96,41.45-48.5,57.15-6.42,6.1-15.82,4.95-24.12,3.94-2.04-.25-3.97-.48-5.8-.61-18.93-3.67-35.14,1.79-44.54,14.98-14.64,20.54-30.54,38.61-49.87,59.33l74.39,18.91-9.07,29.95,155.18,37.38-3.33,49.22c-.76,11.3-4.72,20.01-8.92,29.23-2.01,4.42-4.09,8.99-5.79,13.89-7.93,22.82-13.55,46.64-18.99,69.68-3.46,14.68-7.05,29.87-11.21,44.74-3.06,10.94-7.26,18.41-13.61,24.24l-40.24,36.92c-7.33,6.72-17.29,17.05-19.17,29l-9.39,59.58c-3.45,21.92-4.87,42.09-5.87,60.62,13.14,11.55,27.55,20.72,45.32,28.84l58.91,26.92c30.55,13.96,54.96,41.15,76.79,85.56ZM1064.75,1109.71c-2.31,0-4.36-.93-7.04-2.14-.62-.28-1.28-.58-2-.89l-44.78-19.45-152.88-85.57-43.19-22.8c-16.22-8.56-29.81-17.7-44.05-29.63l-.26-.22.1-.32c12.18-37.32,25.65-72.79,39.54-108.86,6.48-16.84,13.18-34.24,23.72-50.34l1.56-2.38c6.16-9.38,11.98-18.24,16.44-28.64,9.18-21.38,19.2-44.24,30.23-66.52l.18-.37,64.3,17.37,122.78,32.16.02.37,3.71,80.09c6.01,2.22,12.87,3.5,21.56,4.04l39.13-.22v.49c.99,32.86,1.58,60.32-.5,89.58-.56,7.85-3.66,15.26-6.65,22.42-.94,2.25-1.91,4.57-2.8,6.89-20.58,53.77-36.15,103.26-47.59,151.31-.15.65-.3,1.27-.43,1.86-1.28,5.6-2.06,8.97-7.54,11.05-1.31.5-2.47.71-3.57.71ZM771.72,948.68c14.09,11.77,27.56,20.82,43.62,29.29l43.2,22.8,152.85,85.55,44.73,19.43c.72.31,1.38.61,2.01.89,3.99,1.8,6.18,2.79,9.84,1.4,4.99-1.89,5.63-4.72,6.92-10.34.14-.59.28-1.22.44-1.87l.49.12-.49-.12c11.45-48.09,27.03-97.62,47.63-151.43.89-2.33,1.87-4.66,2.81-6.92,3.1-7.42,6.03-14.43,6.58-22.11,2.06-29.07,1.49-56.38.52-88.99l-38.19.21c-8.97-.55-16.02-1.89-22.19-4.21l-.31-.12-.02-.33-3.71-80.05-122.08-31.98-63.51-17.16c-10.95,22.15-20.9,44.86-30.03,66.11-4.5,10.48-10.34,19.37-16.53,28.79l-1.56,2.38c-10.48,16.01-17.16,33.37-23.62,50.15-13.84,35.95-27.27,71.31-39.41,108.49ZM1659.58,969.38l-44.8-37.31c-15.72-13.09-32.71-20.38-51.95-22.29l-.47-.05,4.05-89.86,3.02-62.69,10.03-77.99.04-.08,44.12-81.35,45.69,24.1c23.37,17.81,48.83,33.32,80.21,48.88,3.46,1.75,6.95,3.4,10.33,4.99,6.65,3.14,13.52,6.38,20.14,10.41l102.72,62.54-.52.45-90.56,78.22c-20.7,17.88-37.71,37.34-55.71,57.95l-4.12,4.71c-22.41,21.7-46.61,46.25-71.91,78.96l-.32.41ZM1563.4,908.83c19.25,2,36.27,9.35,52.02,22.47l44.01,36.65c25.23-32.56,49.35-57.03,71.66-78.63l4.09-4.68c18.03-20.63,35.06-40.12,55.81-58.05l90.04-77.77-101.55-61.83c-6.57-4-13.12-7.09-20.05-10.36-3.38-1.6-6.88-3.25-10.35-5-31.43-15.58-56.95-31.13-80.3-48.93l-44.75-23.59-43.61,80.4-10,77.77-3.01,62.65-4.01,88.92ZM765.69,943.71l-.53-.37c-34.12-23.67-66.51-49.31-102.28-77.97-.99-.8-2.12-1.55-3.21-2.28-1.71-1.14-3.47-2.33-4.81-3.72-4.7-4.88-5.24-4.45-5.49-4.24-1.09.87-1.98.86-10.12-8.86l-.42-.51.6-.27c10.52-4.74,18.15-12.98,23.33-25.21,5.96-14.06,12.27-26.55,19.58-41.01l.24-.47-19.94-71.25.15-.2c20.14-26.1,36.51-53.59,20.03-77.8-2.21-3.25-3.96-7.55-4.79-11.81l-.22-1.11.97.58c32.55,19.62,53.11,19.39,81.56,19.06,9.99-.12,21.31-.24,34.33.53,14.4.85,26.08,9.33,30.48,22.12,3.27,9.53,10.03,16.51,19.04,19.67l31.98,11.21-.22.5-29.01,64.62c-5.1,11.36-11.26,21.89-18.83,32.21-10.05,16.57-17.01,33.5-22.48,47.88l-39.91,108.71ZM649.63,853.98c.9,0,2.39,1.01,5.95,4.7,1.27,1.32,2.99,2.47,4.65,3.58,1.11.74,2.25,1.51,3.28,2.33,35.58,28.5,67.8,54.01,101.7,77.56l39.46-107.5c5.5-14.42,12.48-31.41,22.59-48.08,7.55-10.29,13.68-20.77,18.74-32.06l28.79-64.13-30.96-10.85c-9.3-3.26-16.28-10.46-19.65-20.29-4.26-12.4-15.6-20.62-29.59-21.45-12.99-.77-24.29-.64-34.26-.52-28.33.33-48.87.56-81.1-18.61.88,3.76,2.45,7.47,4.4,10.33,16.8,24.68.39,52.44-19.91,78.77l19.91,71.14-.41.82c-7.3,14.44-13.6,26.91-19.55,40.95-5.19,12.23-12.79,20.57-23.24,25.45,6.56,7.79,7.88,8.56,8.31,8.22.27-.21.53-.37.89-.37ZM1072.28,735.67l-187.13-49.23.25-.54,37.75-82.17.42.13c29.88,9.13,57.1,13,85.62,12.18l4.53-40.91,97.16,16.48-15.57,58.58-23.03,85.49ZM886.56,685.77l185.01,48.67,22.77-84.53,15.29-57.52-95.04-16.12-4.51,40.72h-.43c-28.67.9-55.98-2.94-85.96-12.07l-37.14,80.84ZM879.08,684.37l-36.36-12.83c-4.43-1.56-9.52-8-11.11-12.7-5.75-17.01-20.4-27.78-38.21-28.09l-61.53-1.08c-16.91-.3-31.72-7.95-46.03-15.35-1.69-.87-3.38-1.75-5.07-2.61-5.93-3.02-9.66-6.67-11.72-11.47-4.97-11.56,7.5-22.73,16.61-30.88,1.73-1.55,3.37-3.02,4.76-4.37,5.29-5.14,8.52-12.43,11.63-19.48.9-2.05,1.84-4.16,2.81-6.17,13.14-27.39,25.56-55.57,37.97-86.16l30.5-75.21,4.22-10.71-44.07-22.13,23.87-43.53,40.69,24.23-7.1,44c7.73,3.76,14.4,6.2,22.17,8.09l8.94-16.46,57.43,7.72c25.24,3.39,47.92-.29,69.34-11.25l22.77-11.65-.02.84c-.69,36.22-7.83,70.06-16.38,107.37l-24.79,108.2c-3.27,14.26-7.09,25.9-12.04,36.62l-39.26,85.07ZM843.06,670.6l35.5,12.52,38.87-84.25c4.92-10.66,8.73-22.24,11.98-36.43l24.79-108.2c8.47-36.97,15.55-70.52,16.34-106.33l-21.28,10.89c-21.61,11.06-44.48,14.77-69.93,11.36l-56.75-7.63-8.97,16.53-.37-.09c-8.12-1.95-15.02-4.47-23.08-8.42l-.33-.16,7.11-44.06-39.21-23.35-22.87,41.71,43.96,22.07-4.56,11.57-30.5,75.22c-12.41,30.61-24.84,58.81-37.99,86.22-.96,2-1.89,4.11-2.79,6.15-3.16,7.14-6.42,14.52-11.85,19.8-1.4,1.36-3.05,2.83-4.79,4.39-8.88,7.95-21.05,18.84-16.36,29.74,1.97,4.58,5.55,8.06,11.26,10.97,1.7.86,3.39,1.74,5.08,2.61,14.87,7.69,28.91,14.95,45.59,15.24l61.53,1.08c18.25.32,33.25,11.34,39.14,28.77,1.49,4.4,6.4,10.63,10.5,12.08ZM1572.35,679.84l-.37-.08-132.2-28.92v-.4c-.08-13.59,1.71-26.49,3.61-40.15.58-4.21,1.19-8.57,1.73-12.93l.5.06-.5-.06,8.74-70.19c1.04-8.33-3.34-13.35-10.23-18.31l-.46-.33.38-.41,71.15-77.94c1.35-1.48,1.85-2.69,1.48-3.58-1.22-2.94-11.28-3.38-20.15-3.76-8.14-.35-15.83-.69-19.23-2.62l-.95-.54,56.8-20.16.12.02c8.45,1.14,17.97,4.15,27.8,7.39l.47.15-.15.47-43.78,139.45,99.75,50.29-.24.45-44.27,82.1ZM1440.78,650.03l131.05,28.67,43.67-80.98-99.59-50.21.13-.41,43.76-139.38c-9.57-3.16-18.83-6.06-27.03-7.18l-54.39,19.3c3.68,1.39,10.8,1.7,17.71,2,10.06.44,19.57.85,21.03,4.38.54,1.3,0,2.82-1.67,4.64l-70.77,77.52c6.91,5.07,11.25,10.28,10.18,18.92l-8.74,70.19c-.54,4.37-1.15,8.72-1.74,12.94-1.87,13.49-3.64,26.23-3.61,39.6ZM1003.9,610.2h-.45c-28.07-.07-54.05-4.17-77.21-12.18l-.47-.16.16-.47c6.5-18.88,11.6-37.14,16.52-59.19l21.29-95.37.55.23c11.88,4.92,21.87,7.13,32.36,7.13.21,0,.42,0,.62,0,20.19,0,40.52,2.9,63.96,9.1l50.73,13.44c4.23,1.12,7,6.69,6.56,10.73-1.75,16.26-1.66,29.45-1.57,42.2.13,18.23.25,35.44-4.99,59.29l-.1.46-103.5-17.35-4.46,42.14ZM927.04,597.25c22.81,7.82,48.36,11.84,75.96,11.96l4.48-42.3,103.61,17.37c5.12-23.5,5-40.55,4.87-58.6-.09-12.78-.18-26,1.57-42.32h0c.38-3.57-2.13-8.68-5.83-9.66l-50.73-13.44c-23.34-6.19-43.6-9.07-63.7-9.07-.21,0-.42,0-.62,0-10.46,0-20.42-2.16-32.19-6.97l-21.03,94.21c-4.89,21.91-9.95,40.08-16.39,58.83ZM1125.67,491.17l-.32-2.13c-.23-1.52-.4-3.09-.56-4.62-.79-7.43-1.53-14.44-9.01-16.48l-49.12-13.42c-26.09-7.12-46.99-10.29-67.76-10.22h-.25c-12.05,0-22.72-2.46-32.62-7.5l-.35-.18.09-.38c7.24-30.81,10.08-60.4,12.79-93.12l.02-.29,44.21-20.15c11.1-5.06,18.97-12.6,25.82-20,38.67-41.74,79.27-86.69,113.16-136.87l62.58-92.64.36.13c12.43,4.34,21.12,14.05,23.83,26.62l16,74.08,73.86-3.37.66.53c26.53,21.5,34.54,27.99,51.46,59.06,16.8,30.86,30.31,61.81,44.6,94.59,1.65,3.79,3.31,7.59,4.98,11.4,15.56,3.42,30.88.66,49.61-8.93,8.55-4.38,17.03-7.41,26.02-10.63,2.8-1,5.66-2.03,8.6-3.12l.54-.2,4.7,21.01-.36.17c-41.06,19.61-43.83,20.05-77.73,25.48-3.89.62-8.2,1.31-13.02,2.1-1.24.2-3.82,1.54-4.57,2.26-.46.44.45,3.03,1.37,4.32l36.05,51-1.14-.15c-16.21-2.18-30.72-4.78-50.08-8.99l-73.6-16,33.15-64.81c2.46-4.81.72-11.48-.82-17.36-.68-2.61-1.33-5.07-1.61-7.3l-14.07-90.04-46.3-13.02-57.79,54.03c-6.24,9.41-9.05,17.03-11.77,24.4-3.09,8.39-6.29,17.06-14.55,28.2-13.31,17.95-27.84,36.86-46.16,53.36-3.85,3.47-11.13,2.64-20.35,1.58-16.17-1.86-38.34-4.41-53.8,16.88-14.63,20.14-32.53,41.14-53.19,62.41-.86.89-1.97,3.35-2.13,4.46-.09.64,2.21,2.43,3.94,2.87l71.84,18.08-7.23,22.91ZM999.46,443.29c20.68,0,41.52,3.17,67.47,10.26l49.12,13.42c8.13,2.22,8.95,9.91,9.74,17.34.08.78.17,1.57.26,2.35l5.59-17.69-70.81-17.82c-1.51-.38-4.93-2.33-4.68-3.98.17-1.18,1.32-3.9,2.41-5.02,20.63-21.23,38.49-42.19,53.1-62.3,15.81-21.76,38.3-19.17,54.72-17.28,8.97,1.03,16.04,1.84,19.56-1.33,18.25-16.45,32.74-35.31,46.02-53.22,8.17-11.02,11.21-19.25,14.42-27.95,2.74-7.44,5.58-15.13,11.91-24.65l.07-.09,58.24-54.45,47.46,13.35.05.32,14.12,90.38c.28,2.18.92,4.61,1.59,7.19,1.58,6.06,3.38,12.92.74,18.07l-32.56,63.65,72.33,15.73c18.87,4.1,33.13,6.68,48.86,8.82l-34.73-49.13c-.63-.9-2.48-4.44-1.24-5.62.96-.92,3.77-2.31,5.1-2.53,4.83-.79,9.13-1.48,13.03-2.1,33.67-5.39,36.51-5.84,77.1-25.22l-4.28-19.11c-2.76,1.02-5.44,1.98-8.07,2.92-8.95,3.21-17.41,6.24-25.9,10.58-19.06,9.76-34.64,12.52-50.53,8.96l-.25-.06-.1-.23c-1.7-3.89-3.39-7.76-5.08-11.63-14.29-32.75-27.78-63.69-44.56-94.51-16.83-30.9-24.8-37.36-51.21-58.77l-.36-.29-74.32,3.39-.09-.41-16.09-74.49c-2.61-12.1-10.92-21.47-22.83-25.76l-62.14,92c-33.94,50.24-74.56,95.22-113.26,136.99-6.93,7.47-14.89,15.1-26.14,20.23l-43.67,19.91c-2.7,32.51-5.53,61.94-12.7,92.59,9.72,4.89,20.21,7.21,32.06,7.22.18,0,.37,0,.56,0Z"/>
  </g>
  <g>
    <path class="cls-2" d="M1373.71,1108.31c-13.34-8.3-27.01-12.83-41.44-18.72-17.17-34.97-40.61-69.03-76.64-85.5l-58.91-26.93c-16.9-7.72-31.67-16.78-45.62-29.08,1.16-21.31,2.68-40.52,5.89-60.92l9.39-59.59c1.81-11.48,10.94-21.6,19.33-29.3l40.24-36.92c7.09-6.51,10.87-14.71,13.47-24.01,10.71-38.25,17.22-77.09,30.2-114.45,5.16-14.85,13.55-26.23,14.68-42.99l3.3-48.8-155.29-37.41,9.07-29.96-74.7-18.99c18.6-19.91,35.21-38.56,50.41-59.89,10.32-14.49,27.49-18.59,44.98-15.19,9.33.63,21.75,4.19,29.54-3.2,18.23-17.3,33.94-36.58,48.44-57.08,12.92-18.27,16.29-40.85,24.58-49.38,17.48-17.97,35.09-33.88,53.67-50.75l39.25,10.76,13.16,85.16c.54,6.66,5.69,16.77,2.52,22.96l-36.3,71.01,85.84,18.56c27.46,5.94,53.66,9.97,82.7,12.72l-71.68,78.96,14.04,12.01-8.85,72.86c-2.54,20.91-6.17,40.44-5.96,61.68l139.55,30.64-9.67,73.12c-1.14,8.65-1.34,17.48-1.86,26.57l-5.49,128.83c21.89,1.82,39.84,8.9,55.7,22.31l43.52,36.78-79.23,102.57c-21.97,28.44-40.65,57.29-53.85,91.88-10.18-9.56-21.8-13.97-34.49-18.32-26.64-9.13-52.47-16.68-79.97-22.94-12.52-2.85-22.31-12.14-33.5-19.1Z"/>
    <path d="M1521.87,1169.55l-.54-.51c-10.01-9.4-21.46-13.81-34.31-18.21-28.09-9.62-53.49-16.91-79.92-22.93-9.06-2.06-16.86-7.57-24.4-12.89-3-2.12-6.09-4.3-9.25-6.27-10.45-6.5-21.02-10.65-32.21-15.04-3.02-1.19-6.07-2.38-9.16-3.64l-.18-.07-.08-.17c-21.75-44.29-46.03-71.38-76.4-85.26l-58.91-26.92c-17.94-8.2-32.48-17.46-45.75-29.16l-.18-.16v-.24c1.02-18.63,2.44-38.91,5.91-60.97l9.39-59.58c1.93-12.27,12.04-22.76,19.48-29.59l40.24-36.92c6.21-5.69,10.31-13.03,13.32-23.77,4.16-14.85,7.73-30.02,11.2-44.7,5.44-23.06,11.07-46.91,19.01-69.78,1.72-4.94,3.81-9.53,5.83-13.98,4.15-9.14,8.08-17.76,8.83-28.89l3.27-48.38-155.39-37.43,9.08-29.96-75.01-19.07.58-.62c19.56-20.95,35.62-39.14,50.37-59.84,9.64-13.52,26.21-19.13,45.48-15.39,1.79.12,3.74.35,5.79.6,8.08.98,17.23,2.1,23.31-3.68,16.49-15.65,32.32-34.3,48.37-57,6.68-9.44,10.77-19.99,14.38-29.29,3.33-8.58,6.2-15.98,10.26-20.15,16.86-17.34,33.78-32.69,51.69-48.95l2.21-2,39.82,10.92.05.32,13.16,85.16c.18,2.23.87,4.82,1.61,7.56,1.43,5.36,3.06,11.43.87,15.71l-36,70.43,85.2,18.42c27.39,5.92,53.65,9.96,82.64,12.71l1,.09-.67.74-71.33,78.57,13.85,11.85-8.89,73.13c-.61,4.99-1.28,9.97-1.94,14.78-2.13,15.66-4.14,30.46-4.02,46.44l139.61,30.65-.06.46-9.67,73.12c-.86,6.51-1.18,13.02-1.52,19.9-.11,2.2-.22,4.4-.34,6.63l-5.47,128.34c22.06,1.91,39.71,9.03,55.5,22.39l43.88,37.09-.29.38-79.23,102.57c-25.65,33.2-42.23,61.5-53.78,91.76l-.27.7ZM1332.63,1089.19c3.02,1.23,6.01,2.41,8.97,3.57,11.23,4.41,21.84,8.57,32.37,15.12h0c3.19,1.98,6.29,4.18,9.3,6.3,7.8,5.51,15.17,10.72,24.04,12.74,26.46,6.03,51.89,13.32,80.02,22.96,12.73,4.36,24.1,8.73,34.13,17.92,11.57-30.09,28.14-58.29,53.66-91.32l78.94-102.2-43.15-36.47c-15.74-13.31-33.35-20.36-55.42-22.19l-.48-.04.02-.48,5.49-128.83c.13-2.23.24-4.44.34-6.63.34-6.91.66-13.43,1.52-19.98l9.61-72.67-139.49-30.62v-.4c-.17-16.21,1.87-31.16,4.02-46.99.65-4.81,1.33-9.78,1.94-14.76l8.82-72.59-14.23-12.17.35-.38,71.01-78.22c-28.64-2.75-54.65-6.77-81.77-12.63l-86.47-18.7,36.6-71.59c2.01-3.94.51-9.56-.94-15-.74-2.78-1.45-5.41-1.63-7.7l-13.11-84.81-38.67-10.6-1.8,1.64c-17.9,16.25-34.81,31.59-51.64,48.91-3.92,4.03-6.75,11.34-10.04,19.82-3.63,9.35-7.74,19.96-14.49,29.5-16.1,22.76-31.96,41.45-48.5,57.15-6.42,6.1-15.82,4.95-24.12,3.94-2.04-.25-3.97-.48-5.8-.61-18.92-3.67-35.14,1.79-44.54,14.98-14.64,20.54-30.54,38.61-49.87,59.33l74.39,18.91-9.07,29.95,155.18,37.38-3.33,49.22c-.77,11.3-4.72,20.01-8.92,29.23-2.01,4.42-4.09,8.99-5.79,13.89-7.93,22.82-13.55,46.64-18.99,69.68-3.46,14.68-7.05,29.87-11.21,44.74-3.06,10.94-7.26,18.41-13.61,24.24l-40.24,36.92c-7.33,6.72-17.29,17.05-19.17,29l-9.39,59.58c-3.45,21.92-4.87,42.09-5.87,60.62,13.14,11.55,27.55,20.72,45.32,28.84l58.91,26.92c30.55,13.96,54.96,41.16,76.79,85.56Z"/>
  </g>
  <g>
    <path class="cls-2" d="M1451.54,1382.85c-11.01,38.2-21.54,74.21-34.2,111.08-12.28,35.75-26.13,69.27-40.71,103.95l-27.51,65.43-171.8-64.84c-17.52-6.61-30.85-20.98-44.89-32.47-7.67-6.28-15.36-8.89-23.51-14.17l-125.31-81.09c-20.05-12.97-39.24-24.37-61.14-35.89l145.12-314.88,112.8,53.15c.11,5.49-1.51,10.87-4,15.67l-33.05,64.97c-6.91,13.59-10.54,28.18-15.45,43.99,25.36.38,47.28,3.31,70.48,10.57,27.68,8.67,54.35,16.54,82.67,23.23,32.46,7.67,62.12,19.19,93.95,28.62l76.56,22.69Z"/>
    <path d="M1349.39,1663.95l-.45-.17-171.8-64.84c-13.49-5.09-24.53-14.77-35.21-24.14-3.21-2.81-6.53-5.72-9.81-8.41-4.59-3.75-9.12-6.15-13.92-8.69-3.1-1.64-6.3-3.33-9.55-5.44l-125.31-81.09c-20.94-13.55-40.35-24.95-61.1-35.87l-.42-.22.2-.43,145.33-315.34,113.54,53.49v.31c.11,5.16-1.25,10.51-4.05,15.91l-33.05,64.96c-5.48,10.77-8.9,22.23-12.53,34.36-.88,2.93-1.76,5.9-2.7,8.92,26.41.44,48.01,3.71,69.96,10.58,23.76,7.44,52.16,16.02,82.64,23.22,20.49,4.84,40.24,11.33,59.34,17.62,11.25,3.7,22.88,7.53,34.63,11.01l77.03,22.83-.14.48c-11.27,39.11-21.63,74.46-34.21,111.1-12.35,35.95-26.31,69.7-40.72,103.98l-27.7,65.88ZM923.11,1434.63c20.62,10.87,39.94,22.22,60.76,35.7l125.31,81.09c3.22,2.08,6.4,3.77,9.48,5.4,4.84,2.56,9.42,4.98,14.08,8.8,3.3,2.7,6.63,5.62,9.84,8.43,10.61,9.3,21.58,18.92,34.91,23.95l171.35,64.67,27.33-64.99c14.41-34.27,28.36-68,40.7-103.92,12.52-36.47,22.84-71.67,34.06-110.58l-76.08-22.55c-11.77-3.49-23.41-7.32-34.66-11.02-19.08-6.28-38.82-12.77-59.26-17.59-30.51-7.21-58.93-15.79-82.71-23.23-22.04-6.9-43.73-10.16-70.34-10.55h-.67s.2-.65.2-.65c1-3.23,1.95-6.41,2.89-9.54,3.64-12.17,7.07-23.67,12.59-34.53l33.05-64.97c2.67-5.15,4-10.23,3.95-15.12l-112.06-52.8-144.71,313.99Z"/>
  </g>
  <g>
    <path class="cls-2" d="M1058.95,1121.84l-142.82,309.89-203.62-91.88-90.2-42.77,158.88-331.28c21.32,15.29,43.22,24.54,65.2,36.93l153.95,86.76,48.06,20.67c4.53.98,10.48,5.54,10.56,11.68Z"/>
    <path d="M916.38,1432.39l-204.07-92.09-90.66-42.99.22-.45,159.14-331.82.48.35c14.3,10.26,29.17,17.95,43.56,25.4,7.07,3.66,14.38,7.44,21.59,11.5l153.95,86.76,48.01,20.65c4.27.91,10.77,5.43,10.87,12.13v.11s-.05.1-.05.1l-143.03,310.34ZM622.98,1296.84l89.75,42.55,203.16,91.67,142.57-309.34c-.15-5.84-5.98-10.19-10.17-11.09l-48.15-20.7-154-86.78c-7.2-4.06-14.5-7.83-21.56-11.49-14.25-7.38-28.99-15-43.2-25.12l-158.4,330.29Z"/>
  </g>
  <g>
    <path class="cls-2" d="M758.36,1647.14c-4.56,6.09-6.61,9.54-12.31,11.29-12.16,3.74-26.03,11.34-30.02,23.93-.5,2.33,3.58,7.7,2.53,9.76s-4.67,6.38-7.17,6.94c-8.81-2.99-20.27-7.36-29.02-11.03l-51.06-21.4c-46.4-19.45-46.67-35.83-76.9-47.79l-74.78-29.59,14.07-22.22,93.37-185.48c12.79-25.4,22.09-50.94,31.94-78.07l96.18,45.35,156.39,71.09c25.72,10.38,49.63,21.49,73.79,35.45l-33.21,62.75c-7.76,14.67-11.08,30.53-10.07,46.79-16.46,48.93-4.75,58.03-29.98,108.83-3.11,6.27-6.61,13.22-13.18,16.1l-82.99-23.64-2-10.27-15.59-8.79Z"/>
    <path d="M711.36,1699.59l-.13-.04c-8.65-2.93-20.05-7.27-29.05-11.04l-51.06-21.4c-25.43-10.66-37.05-20.4-47.3-29-8.57-7.19-15.96-13.39-29.59-18.78l-75.34-29.81,14.39-22.73,93.35-185.44c12.9-25.63,22.14-51.07,31.92-78.01l.19-.52.5.23,96.18,45.35,156.38,71.09c28.11,11.34,51.58,22.62,73.83,35.47l.42.24-33.43,63.18c-7.67,14.49-11.04,30.14-10.01,46.52v.1s-.02.09-.02.09c-6.9,20.52-8.8,33.76-10.64,46.56-2.53,17.61-4.71,32.82-19.37,62.33-3.11,6.27-6.64,13.37-13.43,16.33l-.16.07-.17-.05-83.28-23.72-2.01-10.35-15.01-8.46c-.37.5-.73.98-1.07,1.44-3.72,5.02-5.96,8.06-11.23,9.68-7.4,2.28-25.11,9.14-29.69,23.6-.19.89.57,2.62,1.3,4.28.96,2.19,1.86,4.25,1.2,5.55-1.12,2.2-4.81,6.6-7.5,7.21l-.14.03ZM480.39,1589.02l74.22,29.37c13.78,5.45,21.23,11.71,29.87,18.95,10.19,8.55,21.75,18.24,47.04,28.84l51.06,21.4c8.93,3.75,20.24,8.04,28.85,10.97,2.28-.64,5.68-4.65,6.7-6.65.45-.88-.44-2.91-1.23-4.7-.83-1.9-1.62-3.69-1.35-4.94,4.74-14.96,22.81-21.98,30.36-24.3,4.95-1.53,7-4.29,10.72-9.32.42-.57.87-1.17,1.33-1.79l.26-.35,16.17,9.12,1.98,10.2,82.52,23.5c6.35-2.87,9.76-9.73,12.77-15.79,14.59-29.37,16.77-44.51,19.28-62.03,1.84-12.82,3.74-26.08,10.65-46.64-1.02-16.54,2.39-32.33,10.13-46.96l32.98-62.33c-22.09-12.73-45.4-23.91-73.31-35.17l-156.41-71.1-95.69-45.12c-9.72,26.78-18.94,52.09-31.78,77.61l-93.37,185.48-13.77,21.75Z"/>
  </g>
  <g>
    <path class="cls-2" d="M1075.81,1095.96c-1.62,6.81-1.88,10.37-7.67,12.57-4.46,1.69-6.97-.03-12.23-2.31l-44.78-19.45-152.84-85.55-43.2-22.8c-15.79-8.33-29.58-17.53-43.97-29.57,12.23-37.48,25.53-72.47,39.53-108.83,6.78-17.62,13.41-34.57,23.67-50.25,6.69-10.22,13.18-19.78,18.05-31.1,9.67-22.5,19.38-44.6,30.22-66.5l63.9,17.27,122.43,32.07,3.73,80.42c6.97,2.62,14.34,3.71,22.01,4.18l38.68-.22c.93,31.29,1.62,59.4-.51,89.53-.72,10.19-5.68,19.41-9.42,29.17-18.94,49.47-35.13,98.96-47.61,151.37Z"/>
    <path d="M1064.75,1109.71c-2.31,0-4.36-.93-7.04-2.14-.62-.28-1.28-.58-2-.89l-44.78-19.45-152.88-85.57-43.19-22.8c-16.22-8.56-29.81-17.7-44.05-29.63l-.26-.22.1-.32c12.18-37.32,25.65-72.79,39.53-108.86,6.48-16.84,13.18-34.24,23.72-50.34l1.56-2.38c6.16-9.38,11.98-18.24,16.44-28.64,9.18-21.38,19.2-44.24,30.23-66.52l.18-.37,64.3,17.37,122.78,32.17.02.37,3.71,80.09c6.01,2.22,12.87,3.5,21.56,4.04l39.13-.22v.49c.99,32.86,1.58,60.32-.5,89.58-.56,7.85-3.66,15.26-6.65,22.42-.94,2.25-1.91,4.57-2.8,6.89-20.58,53.77-36.15,103.26-47.59,151.31-.15.65-.3,1.27-.43,1.86-1.28,5.6-2.06,8.97-7.54,11.05-1.31.5-2.47.71-3.57.71ZM771.72,948.68c14.09,11.77,27.56,20.82,43.62,29.29l43.2,22.8,152.85,85.55,44.73,19.43c.72.31,1.38.61,2.01.9,3.99,1.8,6.18,2.79,9.84,1.4,4.99-1.89,5.63-4.72,6.92-10.34.14-.59.28-1.22.44-1.87l.49.12-.49-.12c11.45-48.09,27.03-97.62,47.63-151.43.89-2.33,1.87-4.66,2.81-6.92,3.1-7.42,6.03-14.43,6.58-22.11,2.06-29.07,1.49-56.38.52-88.99l-38.19.21c-8.97-.55-16.02-1.89-22.19-4.21l-.31-.12v-.33s-3.72-80.05-3.72-80.05l-122.08-31.98-63.51-17.16c-10.95,22.15-20.9,44.86-30.03,66.11-4.5,10.48-10.34,19.37-16.53,28.79l-1.56,2.38c-10.48,16.01-17.16,33.37-23.62,50.15-13.84,35.95-27.27,71.31-39.41,108.49Z"/>
  </g>
  <g>
    <path class="cls-2" d="M379.39,1111.38l22.81-27.05c9.33-11.07,17.12-22.76,28.16-32.35,17.33-15.07,34.51-29.55,53.71-42.3,10.85-7.21,22.88-11.04,34.85-17.52l.28-41.25c16.64-15.44,30.68-26.14,54.1-18.77l59.32-56.55.57-20,16.71,6.83c4.19,6.78,10.38,10.12,16.23,14.6l66.52,50.93c14.49,11.1,29.02,21.23,42.81,33.65l-159.36,332.33-100.45-44.56-180.36-74.92c17.91-22.95,47.65-29.19,44.12-63.08Z"/>
    <path d="M616.33,1294.58l-.44-.2-100.45-44.56-180.96-75.17.4-.52c5.86-7.51,12.92-13.19,19.75-18.69,14.28-11.5,26.62-21.43,24.26-44.03l-.02-.21.14-.16,22.81-27.05c2.73-3.24,5.37-6.58,7.93-9.82,6.12-7.76,12.45-15.78,20.29-22.59,16.36-14.22,33.99-29.2,53.76-42.34,6.47-4.3,13.22-7.34,20.36-10.56,4.67-2.1,9.49-4.28,14.26-6.85l.28-41.17.16-.15c16.38-15.2,30.79-26.25,54.31-18.97l58.96-56.2.58-20.52,17.53,7.17.09.14c3.21,5.19,7.57,8.3,12.19,11.6,1.29.92,2.62,1.87,3.92,2.87l66.52,50.93c3.74,2.86,7.54,5.71,11.22,8.46,10.51,7.86,21.38,15.99,31.62,25.22l.28.25-.16.34-159.57,332.76ZM336.08,1174.25l179.75,74.67,100.02,44.37,158.99-331.55c-10.13-9.1-20.87-17.14-31.27-24.91-3.68-2.75-7.48-5.6-11.23-8.46l-66.52-50.93c-1.29-.99-2.61-1.93-3.89-2.85-4.66-3.33-9.07-6.47-12.38-11.75l-15.9-6.5-.55,19.48-59.69,56.89-.28-.09c-23.15-7.28-36.78,3.06-53.45,18.52l-.28,41.33-.26.14c-4.88,2.65-9.82,4.87-14.59,7.02-7.11,3.2-13.82,6.23-20.22,10.48-19.72,13.1-37.32,28.06-53.65,42.26-7.76,6.75-13.78,14.38-20.16,22.45-2.56,3.24-5.2,6.59-7.95,9.85l-22.67,26.89c2.31,22.99-10.79,33.54-24.65,44.7-6.63,5.34-13.48,10.85-19.18,18.01Z"/>
  </g>
  <g>
    <path class="cls-2" d="M1010.59,1859.26c-3.4-1.13-6.68-9.68-5.69-13.26l19-23.67c-7.73-10.71-16.32-15-29.67-19.74l40.86-64.71-10.46-26.23,14.73-27.04,16.82-.54c9.97-18.44-.06-32.78-.2-51.77,13.93-8.98,24.47-18.97,34.13-31.81l27.67-36.79,36.27,29.2c11.3,7.66,22.47,13.7,35.63,18.59l157.03,58.39c-30.62,78.36-62.56,154.37-100.22,231.09l-108.89-17.47-13.72,57.97c-10.42-1.26-19.49-2.35-29.07-2.97l-93.36-6.03,14.83-39.15c3.65-9.65,6.24-18.38,8.7-29.29l-14.39-4.8Z"/>
    <path d="M1124.26,1942.05l-.44-.05c-9.95-1.2-19.35-2.34-29.04-2.96l-94.03-6.08,15.07-39.79c3.57-9.43,6.14-18.06,8.58-28.78l-13.96-4.65c-3.72-1.24-7.08-10.03-6.01-13.87l.09-.18,18.76-23.37c-7.42-10.14-15.69-14.46-29.21-19.25l-.59-.21,41.05-65.02-10.45-26.21,14.98-27.5,16.82-.54c6.31-11.86,4.23-22.12,2.03-32.97-1.17-5.78-2.38-11.76-2.43-18.31v-.28s.23-.15.23-.15c13.65-8.81,24.14-18.58,34-31.69l27.98-37.2,36.67,29.53c11.87,8.04,23.16,13.93,35.49,18.52l157.5,58.57-.18.47c-35.7,91.34-66.61,162.63-100.24,231.12l-.16.33-108.79-17.45-13.72,57.96ZM1002.16,1932.04l92.68,5.99c9.57.62,18.85,1.73,28.65,2.92l13.73-57.99.46.07,108.52,17.41c33.5-68.25,64.31-139.29,99.86-230.24l-156.55-58.22c-12.41-4.61-23.76-10.54-35.74-18.65l-35.9-28.9-27.36,36.37c-9.88,13.14-20.39,22.95-34.03,31.78.08,6.34,1.26,12.19,2.41,17.84,2.25,11.11,4.38,21.61-2.27,33.9l-.14.25-16.82.54-14.48,26.58,10.47,26.25-40.66,64.39c13.5,4.83,21.8,9.28,29.32,19.71l.22.31-19.17,23.89c-.84,3.4,2.23,11.5,5.39,12.55l14.82,4.94-.1.44c-2.48,10.97-5.09,19.75-8.72,29.35l-14.59,38.52Z"/>
  </g>
  <g>
    <path class="cls-2" d="M1242.31,1164.73c-17.33,11.26-34.47,18.13-54.42,13.97l.06-9.94-114.73-54.01c5.84-4.3,7.38-8.68,8.95-15.25,12.54-52.64,28.79-103.64,48.67-153.95,5.97-15.11,10.25-28.66,10.15-45.09l-.49-80.17c-22.57-3.92-37.18,1.27-60.9-2.71-1.25-25.76-3.15-49.32-2.74-75.32.11-6.85,5.22-16.69,7.15-23.88l25.92-96.73c6.86-25.61,13.59-50.85,13.5-77.51l-.17-45.5,156.86,37.96-2.81,43.05c-1.06,16.24-10.68,26.52-14.49,40.98l-31.38,119.16c-2.04,7.73-7.92,14.48-13.69,19.77l-39.55,36.27c-8.42,7.72-16.21,18.77-18.55,30.01-3.99,19.21-6.24,37.45-9.06,56.7-3.42,23.32-5.82,45.66-6.38,68.93,15.7,13.98,31.75,23.96,50.3,32.46l59.19,27.11c34.58,15.84,56.73,49.04,72.86,83.11l13.57,7.01-97.83,63.6Z"/>
    <path d="M1199.75,1180.45c-3.97,0-7.93-.43-11.96-1.27l-.4-.08.05-10.03-115.19-54.24.67-.5c5.86-4.33,7.27-8.73,8.76-14.96,12.44-52.21,28.36-102.59,48.69-154.02,6.31-15.98,10.21-29.06,10.11-44.9l-.49-79.75c-10.98-1.86-19.91-1.57-29.35-1.26-9.42.31-19.16.63-31.13-1.38l-.4-.07-.02-.4c-.3-6.18-.64-12.23-.97-18.22-1.07-19.21-2.08-37.35-1.77-57.13.07-4.47,2.19-10.08,4.23-15.5,1.15-3.05,2.24-5.93,2.93-8.51l25.92-96.73c6.67-24.91,13.58-50.68,13.48-77.38l-.17-46.14,157.89,38.21-2.84,43.46c-.64,9.74-4.37,17.46-7.98,24.93-2.45,5.07-4.99,10.32-6.52,16.14l-31.38,119.16c-1.71,6.5-6.24,13.05-13.83,20.01l-39.55,36.27c-9.45,8.67-16.33,19.79-18.4,29.74-3.15,15.16-5.18,29.49-7.33,44.66-.56,3.97-1.13,7.97-1.72,12.02-3.9,26.59-5.86,47.77-6.37,68.64,14.78,13.13,30.68,23.37,50.01,32.23l59.19,27.11c29.26,13.4,52.47,39.84,73.03,83.2l14.19,7.33-98.55,64.07-.27-.42.27.42c-16.03,10.42-29.45,15.31-42.83,15.31ZM1188.4,1178.29c17.18,3.47,33.25-.72,53.64-13.98l97.11-63.13-12.96-6.69-.07-.15c-20.47-43.22-43.55-69.55-72.62-82.87l-59.19-27.11c-19.5-8.93-35.52-19.27-50.43-32.54l-.17-.15v-.23c.5-20.98,2.47-42.26,6.39-68.99.59-4.04,1.16-8.04,1.72-12.01,2.15-15.19,4.19-29.53,7.34-44.72,2.11-10.15,9.1-21.47,18.7-30.27l39.55-36.27c7.45-6.83,11.88-13.22,13.54-19.53l31.38-119.16c1.56-5.92,4.12-11.21,6.59-16.32,3.57-7.38,7.26-15.02,7.88-24.56l2.78-42.62-155.83-37.71.16,44.87c.1,26.84-6.82,52.67-13.51,77.64l-25.92,96.73c-.7,2.62-1.8,5.53-2.96,8.6-2.02,5.34-4.1,10.87-4.17,15.16-.31,19.74.7,37.87,1.77,57.06.33,5.86.66,11.79.95,17.83,11.7,1.92,21.27,1.61,30.54,1.3,9.19-.3,18.69-.61,29.96,1.34l.41.07v.42s.49,80.17.49,80.17c.1,16-3.82,29.19-10.18,45.28-20.31,51.39-36.22,101.72-48.64,153.88-1.43,6.01-2.9,10.66-8.47,15.03l114.27,53.8-.05,9.85Z"/>
  </g>
  <path class="cls-2" d="M1316.72,201.43l-58.04,54.26c-13.46,20.26-10.91,31.81-26.34,52.63-14.09,19-28.36,37.31-46.09,53.29-10.47,9.43-50.08-14.68-74.21,18.53-15.93,21.93-34.21,42.86-53.14,62.35-.98,1.01-2.1,3.59-2.27,4.74-.17,1.15,2.7,3.02,4.31,3.42l71.32,17.95-6.42,20.34c-1.32-8.79-.51-18.94-9.93-21.51l-49.13-13.42c-22.63-6.18-44.29-10.3-67.89-10.24-11.26.03-22.21-2.13-32.63-7.45,7.37-31.38,10.17-61.45,12.8-93.2l43.94-20.03c10.44-4.76,18.09-11.59,25.98-20.11,40.5-43.71,79.71-87.34,113.21-136.93l62.36-92.32c11.83,4.13,20.77,13.58,23.51,26.25l16.09,74.49,74.09-3.38c26.96,21.85,34.86,28.14,51.85,59.33,18.81,34.54,33.81,69.96,49.66,106.18,18.03,4.04,34.42-.84,50.2-8.92,11.16-5.71,22.11-9.1,34.56-13.73l4.49,20.06c-45.72,21.83-43.9,19.87-90.62,27.54-1.28.21-3.99,1.58-4.84,2.4s.54,3.9,1.31,4.97l35.39,50.06c-18.15-2.44-33.3-5.34-50.04-8.98l-72.97-15.86,32.86-64.23c3.62-7.09-1.43-17.57-2.38-24.95l-14.12-90.37-46.88-13.18Z"/>
  <g>
    <path class="cls-2" d="M1659.5,968.66l-44.4-36.98c-14.94-12.44-31.66-20.36-52.22-22.4l4.03-89.39,3.02-62.68,10.01-77.86,43.89-80.92,45.26,23.87c25.27,19.26,51.77,34.78,80.22,48.88,10.31,5.21,20.51,9.34,30.44,15.38l102.14,62.18-90.56,78.22c-22.31,19.27-40.49,40.55-59.88,62.71-25.58,24.76-48.59,48.82-71.93,78.99Z"/>
    <path d="M1659.58,969.38l-44.8-37.31c-15.72-13.09-32.71-20.38-51.95-22.29l-.47-.05,4.05-89.86,3.02-62.69,10.03-77.99.04-.08,44.12-81.35,45.69,24.1c23.37,17.81,48.83,33.32,80.21,48.88,3.46,1.75,6.95,3.4,10.33,4.99,6.65,3.14,13.52,6.38,20.14,10.41l102.72,62.54-91.08,78.67c-20.7,17.88-37.71,37.34-55.71,57.95l-4.12,4.71c-22.41,21.69-46.61,46.25-71.91,78.96l-.32.41ZM1563.4,908.83c19.25,2,36.27,9.36,52.02,22.47l44.01,36.65c25.23-32.56,49.35-57.03,71.66-78.63l4.09-4.68c18.03-20.63,35.06-40.12,55.81-58.05l90.04-77.77-101.55-61.83c-6.57-4-13.12-7.09-20.05-10.36-3.38-1.6-6.88-3.25-10.35-5-31.43-15.58-56.95-31.13-80.3-48.93l-44.75-23.59-43.61,80.4-10,77.77-3.01,62.64-4.01,88.92Z"/>
  </g>
  <path class="cls-1" d="M842.89,671.07c-4.28-1.51-9.27-7.84-10.81-12.39-5.72-16.92-20.26-28.11-38.68-28.43l-61.53-1.08c-18.74-.33-34.52-9.57-50.88-17.91-5.4-2.75-9.33-6.19-11.49-11.22-5.75-13.36,12.53-26.21,21.26-34.69,6.93-6.73,10.28-16.91,14.54-25.8,13.75-28.66,26-56.66,37.98-86.19l30.5-75.21,4.39-11.14-44.02-22.1,23.37-42.62,39.95,23.79-7.11,44.03c7.92,3.88,14.86,6.43,22.98,8.38l8.96-16.5,57.09,7.67c24.48,3.29,47.68-.07,69.63-11.3l22.02-11.27c-.71,36.95-8.11,71.25-16.37,107.27l-24.79,108.2c-2.92,12.74-6.59,24.77-12.01,36.53l-39.06,84.66-35.93-12.68Z"/>
  <g>
    <path class="cls-2" d="M1376.03,1353.17c-30.02-8.87-56.86-19.52-86.59-26.72-28.83-6.92-56.15-14.45-84.31-23.39-22.03-7-43.16-11.32-67.5-11.98,5.09-18.78,12.26-36.29,21.26-53.64l26.81-51.67c22.78,4.06,42.19-3.27,61-15.49l102.26-66.44c21.11,6.46,38.06,26.48,57.85,30.78,26.37,5.72,50.81,13.03,76.15,21.76,12.86,4.43,25.65,8.2,34.94,19.16-9.34,16.16-16.38,32.55-21.7,51.12l-42.79,149.38-77.39-22.87Z"/>
    <path d="M1453.76,1376.66l-77.87-23.01c-11.76-3.47-23.15-7.26-34.16-10.92-17.65-5.87-34.33-11.41-52.4-15.79-29.31-7.03-56.9-14.69-84.34-23.4-24.14-7.66-44.92-11.35-67.37-11.96l-.63-.02.17-.61c4.84-17.87,11.81-35.45,21.3-53.74l26.98-51.99.36.06c20.02,3.57,38.73-1.19,60.64-15.42l102.45-66.57.22.07c10.23,3.13,19.52,9.45,28.5,15.55,9.84,6.69,19.14,13.01,29.31,15.22,23.95,5.19,48.17,12.11,76.21,21.77l2.72.93c12.2,4.16,23.72,8.09,32.44,18.38l.23.27-.18.3c-9.53,16.5-16.41,32.71-21.65,51.01l-42.93,149.87ZM1376.17,1352.69l76.91,22.73,42.65-148.9c5.23-18.27,12.09-34.46,21.57-50.92-8.52-9.89-19.82-13.74-31.77-17.82l-2.73-.93c-28-9.65-52.19-16.55-76.1-21.74-10.36-2.25-19.74-8.62-29.66-15.37-8.85-6.02-18.01-12.24-28.01-15.35l-102.06,66.31c-22.01,14.3-40.84,19.13-60.99,15.63l-26.64,51.34c-9.35,18.02-16.24,35.34-21.06,52.93,22.3.66,43,4.36,67.01,11.99,27.41,8.7,54.98,16.35,84.27,23.38,18.11,4.39,34.81,9.94,52.48,15.81,11.01,3.66,22.39,7.44,34.13,10.91Z"/>
  </g>
  <g>
    <path class="cls-2" d="M994.13,1931.38c-79.7-5.38-49.7-10.38-124.99,14.17l-62.23-39.88-.69-32.09-36.21,6.3,2.19,26.12-46.87,24.96-83.87-41,65.6-146.22c6.75-15.05,11.23-29.62,15.85-44.8,1.79-5.87,4.97-9.99.47-16.72,10.8-17.97,27.17-13.58,36.81-25,1.06.08,3.79.74,5.1,1.25,1.57.62,2.61,4.89,2.63,7.22-.03,1.57,1.24,5.94,3.47,6.57l81.83,23.19,47.41,122.07,76.23-8.8c14.31-1.65,27.6,3.2,38.05,13.58l-18.09,22.12,5.13,19.65,15.15,4.72c-3.52,11.09-7.13,21.58-11.4,32.63l-11.58,29.95Z"/>
    <path d="M869.07,1946.1l-62.65-40.16-.68-31.78-35.18,6.12,2.18,25.99-47.39,25.24-84.53-41.33.2-.44,65.6-146.22c6.88-15.34,11.43-30.29,15.83-44.74.35-1.14.74-2.2,1.12-3.23,1.62-4.38,2.9-7.83-.59-13.06l-.18-.26.16-.27c6.26-10.42,14.23-13.38,21.93-16.23,5.59-2.08,10.88-4.04,14.92-8.83l.17-.2.26.02c1.15.09,3.95.77,5.25,1.29,1.9.75,2.93,5.4,2.95,7.68-.03,1.56,1.25,5.57,3.11,6.1l82.07,23.26,47.36,121.94,75.85-8.75c14.45-1.67,27.75,3.08,38.46,13.73l.32.32-18.21,22.27,5,19.13,15.37,4.79-.15.48c-3.82,12.02-7.45,22.4-11.41,32.66l-11.71,30.29-.37-.02c-15.76-1.06-27.03-2.09-36.08-2.92q-29.66-2.71-63.19,8.58c-6.79,2.29-15.24,5.13-25.54,8.49l-.23.07ZM807.4,1905.39l61.81,39.61c10.19-3.32,18.56-6.14,25.3-8.41q33.72-11.36,63.6-8.63c8.98.82,20.13,1.84,35.69,2.89l11.44-29.61c3.91-10.11,7.48-20.33,11.24-32.12l-14.94-4.65-5.27-20.16,17.96-21.96c-10.43-10.2-23.32-14.74-37.31-13.12l-76.62,8.84-.14-.36-47.32-121.83-81.59-23.13c-2.6-.74-3.87-5.54-3.84-7.07-.02-2.54-1.15-6.28-2.31-6.74-1.21-.48-3.59-1.05-4.71-1.19-4.19,4.85-9.52,6.83-15.17,8.92-7.47,2.77-15.2,5.64-21.26,15.54,3.56,5.52,2.08,9.5.52,13.7-.38,1.02-.77,2.07-1.1,3.18-4.41,14.48-8.97,29.46-15.88,44.86l-65.4,145.78,83.21,40.67,46.36-24.69-2.2-26.25,37.23-6.48.69,32.41Z"/>
  </g>
  <g>
    <path class="cls-2" d="M1016.76,1711.01l10.57,26.01-40.32,63.67-81.93,9.17-43.62-113.15c9.54-4.9,13.56-12.69,17.79-21.48,25.07-52.05,13.13-59.54,29.81-109.02-1.13-15.72,1.81-30.85,9.35-44.99l33.29-62.39,136.79,88.62,22.3,13.73-27.81,37.07c-9.19,12.25-19.8,21.43-33.27,29.61-3.03,18.61,7.22,29.75,2.69,49.31l-17.01.34-18.64,33.49Z"/>
    <path d="M904.76,1810.41l-.14-.36-43.78-113.57.4-.21c9.04-4.64,12.98-11.74,17.57-21.25,14.39-29.87,16.51-44.73,18.97-61.92,1.82-12.75,3.71-25.94,10.78-46.95-1.14-16.12,2.03-31.31,9.42-45.16l33.55-62.87.46.3,136.78,88.62,22.75,14.02-.33.44-27.8,37.07c-8.84,11.78-19.4,21.2-33.21,29.62-1.36,8.61.19,15.75,1.68,22.67,1.7,7.88,3.46,16.03,1.05,26.44l-.09.38-17.11.34-18.38,33.03,10.58,26.03-.14.22-40.45,63.87-.24.03-82.31,9.22ZM862.09,1696.95l43.32,112.38,81.31-9.1,40.05-63.25-10.56-26,18.89-33.95,16.9-.34c2.23-10.01.52-17.95-1.14-25.63-1.52-7.06-3.1-14.37-1.65-23.26l.04-.23.2-.12c13.8-8.38,24.33-17.75,33.13-29.48l27.48-36.63-21.83-13.45-136.34-88.33-33.04,61.91c-7.32,13.71-10.44,28.76-9.29,44.72v.1s-.02.1-.02.1c-7.07,20.97-8.95,34.13-10.77,46.86-2.47,17.28-4.6,32.2-19.06,62.21-4.6,9.55-8.58,16.71-17.61,21.5Z"/>
  </g>
  <g>
    <path class="cls-2" d="M635.4,1886.15c-30.32-11.76-49.91-26.83-67.42-53.54-9.58-14.61-21.35-25.67-36.34-34.53l-105.4-62.28c-5.31-3.72-10.14-8.29-13.27-13.89l-26.3-47,59.92-52.2c10.06-8.76,18.73-17.56,28.18-27.76l74.44,29.35c32.35,12.76,33.07,29.2,76.89,47.67l52.13,21.97c11.66,4.91,21.93,8.65,35.07,13.14-3.45,12.1-8.29,23.97-13.7,36.03l-64.19,143.05Z"/>
    <path d="M635.67,1886.78l-.44-.17c-30.9-11.99-50.5-27.55-67.66-53.74-9.49-14.47-20.98-25.4-36.18-34.37l-105.4-62.28c-6.09-4.26-10.61-8.99-13.46-14.08l-26.49-47.36,60.23-52.47c8.93-7.78,17.35-16.07,28.14-27.72l.23-.25.32.13,74.44,29.35c15.28,6.03,23.67,12.98,32.56,20.34,9.93,8.24,21.19,17.57,44.34,27.32l52.13,21.97c12.05,5.08,22.72,8.92,35.03,13.13l.45.15-.13.46c-3.81,13.38-9.34,26.32-13.72,36.1l-64.39,143.48ZM387.31,1675.01l26.1,46.65c2.77,4.96,7.19,9.58,13.12,13.73l105.37,62.26c15.33,9.06,26.93,20.08,36.51,34.69,16.96,25.87,36.31,41.3,66.74,53.18l64-142.62c4.32-9.63,9.75-22.34,13.54-35.5-12.15-4.15-22.72-7.97-34.65-13l-52.13-21.97c-23.28-9.81-34.6-19.2-44.59-27.48-8.82-7.31-17.15-14.22-32.29-20.18l-74.12-29.23c-10.71,11.55-19.09,19.8-27.98,27.55l-59.61,51.93Z"/>
  </g>
  <g>
    <path class="cls-2" d="M765.45,942.93c-35.11-24.35-68.52-50.93-102.26-77.95-2.56-2.05-5.82-3.72-7.97-5.96-11.08-11.5-.63,4.78-15.59-13.08,11.61-5.23,18.85-14.3,23.58-25.47,6.05-14.26,12.57-27.13,19.89-41.62l-19.93-71.2c17.28-22.39,37.79-52.31,20.04-78.39-2.31-3.39-3.93-7.64-4.72-11.63,44.36,26.74,66.77,16.73,116.12,19.65,13.98.83,25.62,8.94,30.03,21.79,3.24,9.43,9.87,16.66,19.34,19.98l31.47,11.03-29.01,64.62c-5.19,11.57-11.31,21.94-18.77,32.11-9.29,15.32-16.09,31.04-22.55,47.99l-39.69,108.11Z"/>
    <path d="M765.69,943.71l-.53-.37c-34.12-23.67-66.51-49.31-102.28-77.97-.99-.8-2.12-1.55-3.21-2.28-1.71-1.14-3.47-2.33-4.81-3.72-4.7-4.88-5.24-4.45-5.49-4.24-1.09.87-1.98.86-10.12-8.86l-.42-.51.6-.27c10.52-4.74,18.15-12.98,23.33-25.21,5.96-14.06,12.27-26.55,19.58-41.01l.24-.47-19.94-71.25.15-.2c20.14-26.1,36.51-53.58,20.03-77.8-2.21-3.25-3.96-7.55-4.79-11.81l-.22-1.11.97.58c32.55,19.62,53.11,19.38,81.56,19.06,9.99-.12,21.31-.25,34.33.53,14.4.85,26.08,9.33,30.48,22.12,3.27,9.53,10.03,16.51,19.04,19.67l31.98,11.21-29.24,65.12c-5.1,11.36-11.26,21.89-18.83,32.21-10.05,16.57-17.01,33.5-22.48,47.88l-39.91,108.71ZM649.63,853.98c.9,0,2.39,1.01,5.95,4.7,1.27,1.32,2.99,2.47,4.65,3.58,1.11.74,2.25,1.51,3.28,2.33,35.58,28.5,67.8,54.01,101.7,77.56l39.46-107.5c5.5-14.42,12.48-31.41,22.59-48.08,7.55-10.29,13.68-20.77,18.74-32.06l28.79-64.13-30.96-10.85c-9.3-3.26-16.28-10.46-19.65-20.29-4.26-12.4-15.6-20.62-29.59-21.45-12.99-.77-24.29-.64-34.26-.52-28.33.33-48.87.56-81.1-18.61.88,3.76,2.45,7.47,4.4,10.33,16.8,24.68.39,52.44-19.91,78.77l19.91,71.14-.41.82c-7.3,14.44-13.6,26.91-19.55,40.94-5.19,12.23-12.79,20.57-23.24,25.45,6.56,7.79,7.88,8.56,8.31,8.22.27-.21.53-.37.89-.37Z"/>
  </g>
  <g>
    <path class="cls-2" d="M416.08,1488.68c-35.3-22.71-22.96-27.53-46.22-50.22,22.58-26.52,40.32-59.81,51.55-92.97,2.62-7.72-.04-17.52.28-26.46l20.46-16.65c5.66-4.61,11.08-11.52,13.06-18.56l13.05-46.49c49.57,20.53,96.66,39.85,144.45,62.93-12.05,34.2-24.76,65.19-40.77,96.75l-81.97,161.66-34.73-37.53-24.9-1.01c-4.45-10.86-6.74-23.85-14.28-31.45Z"/>
    <path d="M490.1,1559.54l-35.07-37.9-25.01-1.02-.12-.3c-1.29-3.16-2.42-6.54-3.51-9.8-2.64-7.93-5.38-16.13-10.62-21.44-21.1-13.58-25.26-20.84-30.09-29.25-3.2-5.57-6.82-11.88-16.17-21l-.33-.33.3-.36c21.43-25.17,39.71-58.13,51.46-92.8,1.63-4.82,1.17-10.4.69-16.32-.27-3.31-.55-6.73-.43-10v-.23s20.65-16.79,20.65-16.79c6.19-5.04,11.13-12.05,12.89-18.31l13.21-47.04,8.33,3.45c46.99,19.46,91.38,37.83,136.66,59.71l.4.19-.15.42c-12.87,36.55-25.84,67.31-40.79,96.81l-82.29,162.3ZM430.69,1519.64l24.78,1.01.14.15,34.24,37,81.64-161.02c14.88-29.35,27.78-59.94,40.59-96.27-45.12-21.78-89.37-40.1-136.2-59.49l-7.29-3.02-12.9,45.95c-1.84,6.54-6.78,13.57-13.22,18.81l-20.29,16.5c-.1,3.15.17,6.46.44,9.66.47,5.76.96,11.71-.74,16.72-11.74,34.63-29.96,67.56-51.34,92.78,9.2,9.04,12.81,15.34,16,20.9,4.76,8.3,8.87,15.47,29.81,28.94l.08.07c5.44,5.48,8.21,13.81,10.9,21.87,1.05,3.15,2.13,6.4,3.36,9.44Z"/>
  </g>
  <g>
    <path class="cls-2" d="M451.77,1527.83l34.69,37.48c-10.39,18.88-24.32,34.41-40.56,48.58l-62.58,54.6-92.67-163.56c-10.48-18.49-23.86-30.6-43.5-38.14-15.73-6.04-30.35-14.54-45.79-22.61l43.75-95.16c7.04,5.48,11.06,10.96,15.8,17.47,11.77,16.18,27.25,28.71,44.22,39.59l54.37,34.85c6.17,3.95,13.33,8.2,16.4,14.94,7.68,16.89,19.7,28.13,35.64,37.48,5.93,9.8,9.36,21.32,13.66,33.78l26.58.7Z"/>
    <path d="M383.19,1669.26l-92.98-164.09c-10.67-18.84-24.01-30.53-43.25-37.92-12.27-4.71-23.64-10.79-35.67-17.23-3.36-1.8-6.75-3.61-10.17-5.4l-.42-.22.2-.43,44.01-95.73.5.39c7.16,5.57,11.21,11.13,15.89,17.57,10.43,14.33,24.43,26.87,44.08,39.46l55.54,35.6c5.85,3.73,12.48,7.95,15.41,14.41,7.06,15.53,17.99,27.02,35.44,37.25l.11.06.07.11c5.04,8.33,8.31,17.97,11.76,28.17.6,1.77,1.21,3.56,1.83,5.38l26.44.7,35.08,37.9-.17.32c-9.55,17.36-22.47,32.84-40.67,48.71l-63.04,55ZM202.01,1443.96c3.28,1.72,6.53,3.46,9.76,5.18,12.01,6.42,23.35,12.49,35.56,17.18,19.47,7.47,32.96,19.3,43.76,38.36l92.37,163.02,62.11-54.19c18-15.7,30.8-31,40.28-48.13l-34.3-37.06-26.72-.71-.11-.33c-.67-1.93-1.31-3.83-1.95-5.71-3.42-10.1-6.65-19.65-11.6-27.87-17.57-10.33-28.59-21.94-35.73-37.64-2.81-6.18-9.31-10.33-15.04-13.98l-1.17-.75-54.37-34.85c-19.76-12.66-33.85-25.28-44.35-39.71-4.53-6.23-8.46-11.62-15.2-16.98l-43.29,94.15Z"/>
  </g>
  <g>
    <path class="cls-2" d="M414.88,1342.52c-9.49,29.4-30.64,71.35-52.08,92.32l-49.61-31.86c-16.58-10.64-32.61-21.98-44.51-37.9-6.43-8.59-12.34-16.23-20.71-23.82l64.04-131.67c5.36-11.03,10.93-20.63,18.38-29.56l131.12,54.49-13.95,50.22c-1.78,6.41-9.82,12.12-14.75,16.45-6.51,4.73-13.32,9.84-18.19,15.46-.98,8.12,2.76,18.12.26,25.86Z"/>
    <path d="M362.86,1435.47l-49.95-32.07c-15.09-9.69-32.23-21.42-44.64-38.02-6.4-8.55-12.36-16.24-20.64-23.75l-.28-.25.16-.34,64.04-131.67c6.09-12.52,11.78-21.67,18.44-29.66l.24-.28.34.14,131.53,54.66-14.06,50.65c-1.52,5.46-7.41,10.4-12.15,14.36-.98.82-1.91,1.6-2.75,2.33-6.52,4.74-13.25,9.8-18.04,15.29-.38,3.39.07,7.21.5,10.9.6,5.1,1.22,10.38-.24,14.9l-.48-.15.48.15c-12.83,39.77-35.98,76.65-52.21,92.52l-.28.28ZM248.58,1341.14c8.2,7.49,14.14,15.14,20.5,23.64,12.31,16.47,29.37,28.13,44.38,37.78l49.28,31.64c16.13-15.94,38.96-52.45,51.67-91.83,1.39-4.31.79-9.48.2-14.48-.45-3.81-.91-7.74-.48-11.29l.02-.15.1-.12c4.88-5.62,11.7-10.75,18.28-15.53.81-.72,1.75-1.5,2.73-2.32,4.63-3.88,10.4-8.7,11.83-13.86l13.83-49.8-130.37-54.18c-6.51,7.86-12.1,16.88-18.08,29.17l-63.88,131.33Z"/>
  </g>
  <g>
    <path class="cls-2" d="M1445.63,597.43l8.74-70.19c1.02-8.21-2.94-13.38-10.43-18.78l71.15-77.94c10.45-11.45-29.38-5.83-38.03-10.74l55.66-19.75c8.42,1.13,18.08,4.19,27.71,7.37l-43.91,139.85,99.67,50.25-44.09,81.76-131.81-28.83c-.1-17.86,3.09-34.93,5.34-53.01Z"/>
    <path d="M1572.35,679.84l-132.57-29v-.4c-.08-13.59,1.71-26.49,3.61-40.14.58-4.21,1.19-8.57,1.73-12.93l8.74-70.19c1.04-8.33-3.34-13.35-10.23-18.31l-.46-.33.38-.41,71.15-77.94c1.35-1.48,1.85-2.69,1.48-3.58-1.22-2.94-11.28-3.38-20.15-3.76-8.14-.35-15.83-.69-19.23-2.63l-.95-.54,56.8-20.16.12.02c8.45,1.14,17.97,4.15,27.8,7.39l.47.15-.15.47-43.78,139.44,99.75,50.29-.24.45-44.27,82.1ZM1440.78,650.03l131.05,28.67,43.67-80.98-99.59-50.21.13-.41,43.76-139.38c-9.57-3.16-18.83-6.06-27.03-7.18l-54.39,19.3c3.68,1.39,10.8,1.7,17.71,2,10.06.44,19.57.85,21.03,4.38.54,1.3,0,2.82-1.67,4.64l-70.77,77.52c6.91,5.07,11.25,10.28,10.18,18.92l-8.74,70.19c-.54,4.37-1.15,8.73-1.74,12.94-1.87,13.49-3.64,26.23-3.61,39.6Z"/>
  </g>
  <g>
    <path class="cls-2" d="M1118.03,483.4c-4.25,39.5,2.35,60.94-6.55,101.44l-103.56-17.36-4.47,42.22c-26.49-.07-52.84-3.78-77.05-12.15,7.1-20.6,12.05-39.15,16.54-59.25l21.16-94.79c10.95,4.54,21.24,7.19,32.71,7.16,22.27-.05,42.92,3.43,64.29,9.09l50.73,13.44c3.9,1.03,6.62,6.27,6.19,10.2Z"/>
    <path d="M1003.9,610.2h-.45c-28.07-.07-54.05-4.17-77.21-12.17l-.47-.16.16-.47c6.5-18.88,11.6-37.14,16.52-59.19l21.29-95.37.55.23c11.88,4.92,21.87,7.12,32.36,7.12.21,0,.42,0,.62,0,20.19,0,40.53,2.9,63.96,9.1l50.73,13.44c4.23,1.12,7,6.69,6.56,10.73h0c-1.75,16.26-1.66,29.45-1.57,42.2.13,18.23.25,35.44-4.99,59.29l-.1.46-103.5-17.35-4.46,42.14ZM927.04,597.25c22.81,7.82,48.36,11.84,75.96,11.96l4.48-42.3,103.61,17.37c5.12-23.5,5-40.55,4.87-58.6-.09-12.78-.18-26,1.57-42.32.38-3.57-2.13-8.68-5.83-9.66l-50.73-13.44c-23.34-6.19-43.6-9.07-63.7-9.07-.21,0-.42,0-.62,0-10.46,0-20.42-2.16-32.19-6.97l-21.03,94.21c-4.89,21.91-9.95,40.08-16.39,58.83Z"/>
  </g>
  <g>
    <path class="cls-2" d="M1071.93,735.06l-186.07-48.95,37.57-81.78c27.97,8.55,55.88,13.12,86.22,12.18l4.52-40.82,96.1,16.3-15.43,58.05-22.9,85.01Z"/>
    <path d="M1072.28,735.67l-187.13-49.23,38-82.72.42.13c29.88,9.13,57.11,13.01,85.62,12.18l4.53-40.91,97.16,16.48-15.57,58.58-23.03,85.49ZM886.56,685.77l185.01,48.67,22.77-84.53,15.29-57.52-95.04-16.12-4.51,40.72h-.43c-28.66.89-55.98-2.94-85.96-12.07l-37.14,80.84Z"/>
  </g>
  <g>
    <path d="M1650.28,761.73c3.7,0,6.02,2.2,6.02,5.4s-2.32,5.45-6.02,5.45h-4.87v5.9h-2.67v-16.75h7.55ZM1650.28,770.13c2.1,0,3.35-1.2,3.35-3s-1.25-2.97-3.35-2.97h-4.87v5.97h4.87Z"/>
    <path d="M1670.73,778.47h-2.6v-1.52c-1,1.2-2.45,1.87-4.27,1.87-3,0-4.97-2.15-4.97-5.27v-7.47h2.6v6.95c0,2.02,1.17,3.4,2.97,3.4,2.22,0,3.67-1.5,3.67-4.62v-5.72h2.6v12.4Z"/>
    <path d="M1682.88,766.03l-.17,2.5c-.2-.02-.5-.02-.73-.02-3.15,0-4.7,2.2-4.7,5.6v4.37h-2.6v-12.4h2.6v2.65c1-1.65,2.57-2.8,4.72-2.8.3,0,.55,0,.88.1Z"/>
    <path d="M1697.18,772.28c0,3.85-2.97,6.5-6.62,6.5s-6.67-2.65-6.67-6.5,3-6.47,6.67-6.47,6.62,2.62,6.62,6.47ZM1694.65,772.28c0-2.57-1.97-4.25-4.1-4.25s-4.12,1.67-4.12,4.25,1.95,4.25,4.12,4.25,4.1-1.67,4.1-4.25Z"/>
    <path d="M1709.15,778.47l-5.72-5.15h-.75v5.15h-2.6v-18h2.6v10.27h.77l5.17-4.67h3.32l-6.5,6,7.22,6.4h-3.52Z"/>
    <path d="M1725.96,778.47h-2.6v-13.57l-4.3,2.3v-2.42l5.25-3.05h1.65v16.75Z"/>
    <path d="M1740,763.63l-6.15,14.85h-2.95l6.17-14.32h-8.6v-2.42h11.52v1.9Z"/>
  </g>
  <g>
    <path d="M1121.52,671.97c3.7,0,6.02,2.2,6.02,5.4s-2.32,5.45-6.02,5.45h-4.87v5.9h-2.67v-16.75h7.55ZM1121.52,680.37c2.1,0,3.35-1.2,3.35-3s-1.25-2.97-3.35-2.97h-4.87v5.97h4.87Z"/>
    <path d="M1141.97,688.72h-2.6v-1.52c-1,1.2-2.45,1.87-4.27,1.87-3,0-4.97-2.15-4.97-5.27v-7.47h2.6v6.95c0,2.02,1.17,3.4,2.97,3.4,2.22,0,3.67-1.5,3.67-4.62v-5.72h2.6v12.4Z"/>
    <path d="M1154.12,676.27l-.17,2.5c-.2-.02-.5-.02-.73-.02-3.15,0-4.7,2.2-4.7,5.6v4.37h-2.6v-12.4h2.6v2.65c1-1.65,2.57-2.8,4.72-2.8.3,0,.55,0,.88.1Z"/>
    <path d="M1168.42,682.52c0,3.85-2.97,6.5-6.62,6.5s-6.67-2.65-6.67-6.5,3-6.47,6.67-6.47,6.62,2.62,6.62,6.47ZM1165.89,682.52c0-2.57-1.97-4.25-4.1-4.25s-4.12,1.67-4.12,4.25,1.95,4.25,4.12,4.25,4.1-1.67,4.1-4.25Z"/>
    <path d="M1180.39,688.72l-5.72-5.15h-.75v5.15h-2.6v-18h2.6v10.27h.77l5.17-4.67h3.32l-6.5,6,7.22,6.4h-3.52Z"/>
    <path d="M1197.19,688.72h-2.6v-13.57l-4.3,2.3v-2.42l5.25-3.05h1.65v16.75Z"/>
    <path d="M1206.27,688.72h-2.6v-13.57l-4.3,2.3v-2.42l5.25-3.05h1.65v16.75Z"/>
    <path d="M1220.59,680.19c1.62.17,3.15,1.57,3.15,3.92,0,2.7-1.75,4.6-5.3,4.6h-8.15v-16.75h7.97c3.07,0,4.97,1.82,4.97,4.52,0,2.12-1.42,3.4-2.65,3.6v.1ZM1212.97,679.22h5c1.6,0,2.67-1.02,2.67-2.57,0-1.42-1.1-2.37-2.65-2.37h-5.02v4.95ZM1218.17,686.42c1.8,0,2.82-1.02,2.82-2.55s-1.12-2.5-2.75-2.5h-5.27v5.05h5.2Z"/>
  </g>
  <g>
    <path d="M987.14,509.59c3.7,0,6.02,2.2,6.02,5.4s-2.32,5.45-6.02,5.45h-4.87v5.9h-2.67v-16.75h7.55ZM987.14,517.99c2.1,0,3.35-1.2,3.35-3s-1.25-2.97-3.35-2.97h-4.87v5.97h4.87Z"/>
    <path d="M1007.59,526.34h-2.6v-1.52c-1,1.2-2.45,1.87-4.27,1.87-3,0-4.97-2.15-4.97-5.27v-7.47h2.6v6.95c0,2.02,1.17,3.4,2.97,3.4,2.22,0,3.67-1.5,3.67-4.62v-5.72h2.6v12.4Z"/>
    <path d="M1019.74,513.89l-.17,2.5c-.2-.02-.5-.02-.73-.02-3.15,0-4.7,2.2-4.7,5.6v4.37h-2.6v-12.4h2.6v2.65c1-1.65,2.57-2.8,4.72-2.8.3,0,.55,0,.88.1Z"/>
    <path d="M1034.04,520.14c0,3.85-2.97,6.5-6.62,6.5s-6.67-2.65-6.67-6.5,3-6.47,6.67-6.47,6.62,2.62,6.62,6.47ZM1031.52,520.14c0-2.57-1.97-4.25-4.1-4.25s-4.12,1.67-4.12,4.25,1.95,4.25,4.12,4.25,4.1-1.67,4.1-4.25Z"/>
    <path d="M1046.02,526.34l-5.72-5.15h-.75v5.15h-2.6v-18h2.6v10.27h.77l5.17-4.67h3.32l-6.5,6,7.22,6.4h-3.52Z"/>
    <path d="M1062.82,526.34h-2.6v-13.57l-4.3,2.3v-2.42l5.25-3.05h1.65v16.75Z"/>
    <path d="M1072.37,515.86c3.37,0,5.62,1.95,5.62,5.2s-2.4,5.62-6.05,5.62c-3.37,0-6.12-2.05-6.12-5.77l2.6-.5c0,2.57,1.55,3.85,3.6,3.85s3.4-1.25,3.4-3.15c0-1.8-1.3-2.85-3.25-2.85h-5.42l.32-8.67h10.2v2.42h-7.72l-.17,3.85h3Z"/>
  </g>
  <g>
    <path d="M963.63,644.06c3.7,0,6.02,2.2,6.02,5.4s-2.32,5.45-6.02,5.45h-4.87v5.9h-2.67v-16.75h7.55ZM963.63,652.46c2.1,0,3.35-1.2,3.35-3s-1.25-2.97-3.35-2.97h-4.87v5.97h4.87Z"/>
    <path d="M984.08,660.81h-2.6v-1.52c-1,1.2-2.45,1.87-4.27,1.87-3,0-4.97-2.15-4.97-5.27v-7.47h2.6v6.95c0,2.02,1.17,3.4,2.97,3.4,2.22,0,3.67-1.5,3.67-4.62v-5.72h2.6v12.4Z"/>
    <path d="M996.23,648.36l-.17,2.5c-.2-.02-.5-.02-.73-.02-3.15,0-4.7,2.2-4.7,5.6v4.37h-2.6v-12.4h2.6v2.65c1-1.65,2.57-2.8,4.72-2.8.3,0,.55,0,.88.1Z"/>
    <path d="M1010.53,654.61c0,3.85-2.97,6.5-6.62,6.5s-6.67-2.65-6.67-6.5,3-6.47,6.67-6.47,6.62,2.62,6.62,6.47ZM1008.01,654.61c0-2.57-1.97-4.25-4.1-4.25s-4.12,1.67-4.12,4.25,1.95,4.25,4.12,4.25,4.1-1.67,4.1-4.25Z"/>
    <path d="M1022.51,660.81l-5.72-5.15h-.75v5.15h-2.6v-18h2.6v10.27h.77l5.17-4.67h3.32l-6.5,6,7.22,6.4h-3.52Z"/>
    <path d="M1039.31,660.81h-2.6v-13.57l-4.3,2.3v-2.42l5.25-3.05h1.65v16.75Z"/>
    <path d="M1055.36,655.49c0,3.27-2.43,5.67-6,5.67-4.15,0-6.75-3.07-6.75-8.37,0-3.05.6-5.5,2.28-7.2,1.12-1.15,2.67-1.87,4.55-1.87,2.7,0,4.82,1.35,5.5,3.82l-2.57.5c-.43-1.4-1.53-1.97-3.03-1.97-1.12,0-2.07.5-2.72,1.2-1.15,1.25-1.53,3.05-1.47,4.82.95-1.3,2.67-2.12,4.45-2.12,3.57,0,5.78,2.32,5.78,5.52ZM1052.68,655.46c0-1.92-1.52-3.27-3.4-3.27s-3.38,1.42-3.38,3.32,1.57,3.25,3.38,3.25c1.9,0,3.4-1.4,3.4-3.3Z"/>
  </g>
  <g>
    <path d="M719.18,730.35c3.7,0,6.02,2.2,6.02,5.4s-2.32,5.45-6.02,5.45h-4.87v5.9h-2.67v-16.75h7.55ZM719.18,738.75c2.1,0,3.35-1.2,3.35-3s-1.25-2.97-3.35-2.97h-4.87v5.97h4.87Z"/>
    <path d="M739.63,747.1h-2.6v-1.52c-1,1.2-2.45,1.87-4.27,1.87-3,0-4.97-2.15-4.97-5.27v-7.47h2.6v6.95c0,2.02,1.17,3.4,2.97,3.4,2.22,0,3.67-1.5,3.67-4.62v-5.72h2.6v12.4Z"/>
    <path d="M751.78,734.65l-.18,2.5c-.2-.02-.5-.02-.72-.02-3.15,0-4.7,2.2-4.7,5.6v4.37h-2.6v-12.4h2.6v2.65c1-1.65,2.57-2.8,4.72-2.8.3,0,.55,0,.88.1Z"/>
    <path d="M766.08,740.9c0,3.85-2.97,6.5-6.62,6.5s-6.67-2.65-6.67-6.5,3-6.47,6.67-6.47,6.62,2.62,6.62,6.47ZM763.55,740.9c0-2.57-1.97-4.25-4.1-4.25s-4.12,1.67-4.12,4.25,1.95,4.25,4.12,4.25,4.1-1.67,4.1-4.25Z"/>
    <path d="M778.05,747.1l-5.72-5.15h-.75v5.15h-2.6v-18h2.6v10.27h.77l5.17-4.67h3.32l-6.5,6,7.22,6.4h-3.52Z"/>
    <path d="M794.85,747.1h-2.6v-13.57l-4.3,2.3v-2.42l5.25-3.05h1.65v16.75Z"/>
    <path d="M810.08,742.22c0,3.12-2.35,5.22-5.82,5.22s-5.9-2.17-6.15-5.37l2.52-.5c.23,2.17,1.48,3.52,3.62,3.52,1.97,0,3.37-1.15,3.37-2.85,0-1.55-1.15-2.5-3.12-2.5h-2.37v-2.32h2.22c1.85,0,2.97-.9,2.97-2.37,0-1.62-1.23-2.7-3.1-2.7s-3.27,1.17-3.42,3.47l-2.47-.5c.25-3.15,2.52-5.32,5.9-5.32s5.57,2.05,5.57,5.05c0,1.7-.82,2.97-2.17,3.55,1.52.55,2.45,1.85,2.45,3.62Z"/>
  </g>
  <g>
    <path d="M921.63,888.36c3.7,0,6.02,2.2,6.02,5.4s-2.32,5.45-6.02,5.45h-4.87v5.9h-2.67v-16.75h7.55ZM921.63,896.76c2.1,0,3.35-1.2,3.35-3s-1.25-2.97-3.35-2.97h-4.87v5.97h4.87Z"/>
    <path d="M942.08,905.1h-2.6v-1.52c-1,1.2-2.45,1.87-4.27,1.87-3,0-4.97-2.15-4.97-5.27v-7.47h2.6v6.95c0,2.02,1.17,3.4,2.97,3.4,2.22,0,3.67-1.5,3.67-4.62v-5.72h2.6v12.4Z"/>
    <path d="M954.23,892.66l-.17,2.5c-.2-.02-.5-.02-.73-.02-3.15,0-4.7,2.2-4.7,5.6v4.37h-2.6v-12.4h2.6v2.65c1-1.65,2.57-2.8,4.72-2.8.3,0,.55,0,.88.1Z"/>
    <path d="M968.52,898.91c0,3.85-2.97,6.5-6.62,6.5s-6.67-2.65-6.67-6.5,3-6.47,6.67-6.47,6.62,2.62,6.62,6.47ZM966,898.91c0-2.57-1.97-4.25-4.1-4.25s-4.12,1.67-4.12,4.25,1.95,4.25,4.12,4.25,4.1-1.67,4.1-4.25Z"/>
    <path d="M980.5,905.1l-5.72-5.15h-.75v5.15h-2.6v-18h2.6v10.27h.77l5.17-4.67h3.32l-6.5,6,7.22,6.4h-3.52Z"/>
    <path d="M997.3,905.1h-2.6v-13.57l-4.3,2.3v-2.42l5.25-3.05h1.65v16.75Z"/>
    <path d="M1011.47,905.1h-11.32v-1.72l5.8-5.6c1.47-1.37,2.8-2.55,2.8-4.55,0-1.72-1.25-2.9-3.05-2.9-1.95,0-3.17,1.2-3.3,3.52l-2.45-.5c.12-3.27,2.42-5.35,5.77-5.35s5.6,2.1,5.6,5.17c0,2.4-1.25,3.95-3.77,6.35l-3.3,3.15h7.22v2.42Z"/>
  </g>
  <g>
    <path d="M1318.25,1224.54c3.7,0,6.02,2.2,6.02,5.4s-2.32,5.45-6.02,5.45h-4.87v5.9h-2.67v-16.75h7.55ZM1318.25,1232.94c2.1,0,3.35-1.2,3.35-3s-1.25-2.97-3.35-2.97h-4.87v5.97h4.87Z"/>
    <path d="M1338.7,1241.29h-2.6v-1.52c-1,1.2-2.45,1.88-4.27,1.88-3,0-4.97-2.15-4.97-5.27v-7.47h2.6v6.95c0,2.02,1.17,3.4,2.97,3.4,2.22,0,3.67-1.5,3.67-4.62v-5.72h2.6v12.4Z"/>
    <path d="M1350.85,1228.84l-.18,2.5c-.2-.03-.5-.03-.72-.03-3.15,0-4.7,2.2-4.7,5.6v4.37h-2.6v-12.4h2.6v2.65c1-1.65,2.57-2.8,4.72-2.8.3,0,.55,0,.88.1Z"/>
    <path d="M1365.15,1235.09c0,3.85-2.97,6.5-6.62,6.5s-6.67-2.65-6.67-6.5,3-6.47,6.67-6.47,6.62,2.62,6.62,6.47ZM1362.62,1235.09c0-2.57-1.97-4.25-4.1-4.25s-4.12,1.67-4.12,4.25,1.95,4.25,4.12,4.25,4.1-1.67,4.1-4.25Z"/>
    <path d="M1377.12,1241.29l-5.72-5.15h-.75v5.15h-2.6v-18h2.6v10.27h.77l5.17-4.67h3.32l-6.5,6,7.22,6.4h-3.52Z"/>
    <path d="M1393.92,1241.29h-2.6v-13.57l-4.3,2.3v-2.42l5.25-3.05h1.65v16.75Z"/>
    <path d="M1403,1241.29h-2.6v-13.57l-4.3,2.3v-2.42l5.25-3.05h1.65v16.75Z"/>
    <path d="M1419.52,1241.29l-1.65-3.9h-8.15l-1.65,3.9h-2.9l7.37-16.75h2.5l7.37,16.75h-2.9ZM1413.8,1227.82l-3.02,7.12h6.05l-3.02-7.12Z"/>
  </g>
  <g>
    <path d="M1145.03,1426.25c3.7,0,6.02,2.2,6.02,5.4s-2.32,5.45-6.02,5.45h-4.87v5.9h-2.67v-16.75h7.55ZM1145.03,1434.65c2.1,0,3.35-1.2,3.35-3s-1.25-2.97-3.35-2.97h-4.87v5.97h4.87Z"/>
    <path d="M1165.48,1443h-2.6v-1.52c-1,1.2-2.45,1.88-4.27,1.88-3,0-4.97-2.15-4.97-5.27v-7.47h2.6v6.95c0,2.02,1.17,3.4,2.97,3.4,2.22,0,3.67-1.5,3.67-4.62v-5.72h2.6v12.4Z"/>
    <path d="M1177.63,1430.55l-.18,2.5c-.2-.02-.5-.02-.72-.02-3.15,0-4.7,2.2-4.7,5.6v4.37h-2.6v-12.4h2.6v2.65c1-1.65,2.57-2.8,4.72-2.8.3,0,.55,0,.88.1Z"/>
    <path d="M1191.93,1436.8c0,3.85-2.97,6.5-6.62,6.5s-6.67-2.65-6.67-6.5,3-6.47,6.67-6.47,6.62,2.62,6.62,6.47ZM1189.41,1436.8c0-2.57-1.97-4.25-4.1-4.25s-4.12,1.67-4.12,4.25,1.95,4.25,4.12,4.25,4.1-1.67,4.1-4.25Z"/>
    <path d="M1203.91,1443l-5.72-5.15h-.75v5.15h-2.6v-18h2.6v10.27h.77l5.17-4.67h3.32l-6.5,6,7.22,6.4h-3.52Z"/>
    <path d="M1220.71,1443h-2.6v-13.57l-4.3,2.3v-2.42l5.25-3.05h1.65v16.75Z"/>
    <path d="M1238.16,1434.63c0,5.2-2.85,8.72-7.07,8.72s-7.07-3.53-7.07-8.72,2.85-8.72,7.07-8.72,7.07,3.52,7.07,8.72ZM1235.43,1434.63c0-3.7-1.7-6.25-4.35-6.25s-4.35,2.55-4.35,6.25,1.7,6.25,4.35,6.25,4.35-2.55,4.35-6.25Z"/>
  </g>
  <g>
    <path d="M1143.27,1745.63c3.7,0,6.02,2.2,6.02,5.4s-2.32,5.45-6.02,5.45h-4.87v5.9h-2.67v-16.75h7.55ZM1143.27,1754.03c2.1,0,3.35-1.2,3.35-3s-1.25-2.97-3.35-2.97h-4.87v5.97h4.87Z"/>
    <path d="M1163.72,1762.38h-2.6v-1.52c-1,1.2-2.45,1.87-4.27,1.87-3,0-4.97-2.15-4.97-5.27v-7.47h2.6v6.95c0,2.02,1.17,3.4,2.97,3.4,2.22,0,3.67-1.5,3.67-4.62v-5.72h2.6v12.4Z"/>
    <path d="M1175.87,1749.93l-.18,2.5c-.2-.02-.5-.02-.72-.02-3.15,0-4.7,2.2-4.7,5.6v4.37h-2.6v-12.4h2.6v2.65c1-1.65,2.57-2.8,4.72-2.8.3,0,.55,0,.88.1Z"/>
    <path d="M1190.17,1756.18c0,3.85-2.97,6.5-6.62,6.5s-6.67-2.65-6.67-6.5,3-6.47,6.67-6.47,6.62,2.62,6.62,6.47ZM1187.65,1756.18c0-2.58-1.97-4.25-4.1-4.25s-4.12,1.67-4.12,4.25,1.95,4.25,4.12,4.25,4.1-1.67,4.1-4.25Z"/>
    <path d="M1202.15,1762.38l-5.72-5.15h-.75v5.15h-2.6v-18h2.6v10.27h.77l5.17-4.67h3.32l-6.5,6,7.22,6.4h-3.52Z"/>
    <path d="M1218.95,1762.38h-2.6v-13.57l-4.3,2.3v-2.42l5.25-3.05h1.65v16.75Z"/>
  </g>
  <g>
    <path d="M932.89,1631.33c3.7,0,6.02,2.2,6.02,5.4s-2.32,5.45-6.02,5.45h-4.87v5.9h-2.67v-16.75h7.55ZM932.89,1639.73c2.1,0,3.35-1.2,3.35-3s-1.25-2.97-3.35-2.97h-4.87v5.97h4.87Z"/>
    <path d="M953.34,1648.07h-2.6v-1.52c-1,1.2-2.45,1.88-4.27,1.88-3,0-4.97-2.15-4.97-5.27v-7.47h2.6v6.95c0,2.02,1.17,3.4,2.97,3.4,2.22,0,3.67-1.5,3.67-4.62v-5.72h2.6v12.4Z"/>
    <path d="M965.49,1635.63l-.17,2.5c-.2-.03-.5-.03-.73-.03-3.15,0-4.7,2.2-4.7,5.6v4.37h-2.6v-12.4h2.6v2.65c1-1.65,2.57-2.8,4.72-2.8.3,0,.55,0,.88.1Z"/>
    <path d="M979.79,1641.88c0,3.85-2.97,6.5-6.62,6.5s-6.67-2.65-6.67-6.5,3-6.47,6.67-6.47,6.62,2.62,6.62,6.47ZM977.26,1641.88c0-2.57-1.97-4.25-4.1-4.25s-4.12,1.67-4.12,4.25,1.95,4.25,4.12,4.25,4.1-1.67,4.1-4.25Z"/>
    <path d="M991.76,1648.07l-5.72-5.15h-.75v5.15h-2.6v-18h2.6v10.27h.77l5.17-4.67h3.32l-6.5,6,7.22,6.4h-3.52Z"/>
    <path d="M1013.66,1648.07h-11.32v-1.72l5.8-5.6c1.47-1.37,2.8-2.55,2.8-4.55,0-1.72-1.25-2.9-3.05-2.9-1.95,0-3.17,1.2-3.3,3.52l-2.45-.5c.12-3.27,2.42-5.35,5.77-5.35s5.6,2.1,5.6,5.17c0,2.4-1.25,3.95-3.77,6.35l-3.3,3.15h7.22v2.42Z"/>
  </g>
  <g>
    <path d="M680.63,1519.27c3.7,0,6.02,2.2,6.02,5.4s-2.32,5.45-6.02,5.45h-4.87v5.9h-2.67v-16.75h7.55ZM680.63,1527.66c2.1,0,3.35-1.2,3.35-3s-1.25-2.97-3.35-2.97h-4.87v5.97h4.87Z"/>
    <path d="M701.08,1536.01h-2.6v-1.52c-1,1.2-2.45,1.88-4.27,1.88-3,0-4.97-2.15-4.97-5.27v-7.47h2.6v6.95c0,2.02,1.17,3.4,2.97,3.4,2.22,0,3.67-1.5,3.67-4.62v-5.72h2.6v12.4Z"/>
    <path d="M713.23,1523.57l-.18,2.5c-.2-.02-.5-.02-.72-.02-3.15,0-4.7,2.2-4.7,5.6v4.37h-2.6v-12.4h2.6v2.65c1-1.65,2.57-2.8,4.72-2.8.3,0,.55,0,.88.1Z"/>
    <path d="M727.53,1529.81c0,3.85-2.97,6.5-6.62,6.5s-6.67-2.65-6.67-6.5,3-6.47,6.67-6.47,6.62,2.62,6.62,6.47ZM725,1529.81c0-2.57-1.97-4.25-4.1-4.25s-4.12,1.67-4.12,4.25,1.95,4.25,4.12,4.25,4.1-1.67,4.1-4.25Z"/>
    <path d="M739.5,1536.01l-5.72-5.15h-.75v5.15h-2.6v-18h2.6v10.27h.77l5.17-4.67h3.32l-6.5,6,7.22,6.4h-3.52Z"/>
    <path d="M761.68,1532.31v3.7h-2.62v-3.7h-9.07v-2.5l8.2-10.55h3.5v10.85h2.35v2.2h-2.35ZM759.06,1521.97l-6.12,8.15h6.12v-8.15Z"/>
  </g>
  <g>
    <path d="M452.12,1381.43c3.7,0,6.02,2.2,6.02,5.4s-2.32,5.45-6.02,5.45h-4.87v5.9h-2.67v-16.75h7.55ZM452.12,1389.83c2.1,0,3.35-1.2,3.35-3s-1.25-2.97-3.35-2.97h-4.87v5.97h4.87Z"/>
    <path d="M472.57,1398.18h-2.6v-1.52c-1,1.2-2.45,1.87-4.27,1.87-3,0-4.97-2.15-4.97-5.27v-7.47h2.6v6.95c0,2.02,1.17,3.4,2.97,3.4,2.22,0,3.67-1.5,3.67-4.62v-5.72h2.6v12.4Z"/>
    <path d="M484.72,1385.73l-.17,2.5c-.2-.03-.5-.03-.73-.03-3.15,0-4.7,2.2-4.7,5.6v4.37h-2.6v-12.4h2.6v2.65c1-1.65,2.57-2.8,4.72-2.8.3,0,.55,0,.88.1Z"/>
    <path d="M499.02,1391.98c0,3.85-2.97,6.5-6.62,6.5s-6.67-2.65-6.67-6.5,3-6.47,6.67-6.47,6.62,2.62,6.62,6.47ZM496.5,1391.98c0-2.58-1.97-4.25-4.1-4.25s-4.12,1.67-4.12,4.25,1.95,4.25,4.12,4.25,4.1-1.67,4.1-4.25Z"/>
    <path d="M511,1398.18l-5.72-5.15h-.75v5.15h-2.6v-18h2.6v10.27h.77l5.17-4.67h3.32l-6.5,6,7.22,6.4h-3.52Z"/>
    <path d="M534.77,1392.85c0,3.27-2.42,5.67-6,5.67-4.15,0-6.75-3.07-6.75-8.37,0-3.05.6-5.5,2.27-7.2,1.12-1.15,2.67-1.88,4.55-1.88,2.7,0,4.82,1.35,5.5,3.82l-2.57.5c-.42-1.4-1.52-1.97-3.02-1.97-1.12,0-2.07.5-2.72,1.2-1.15,1.25-1.53,3.05-1.47,4.82.95-1.3,2.67-2.12,4.45-2.12,3.57,0,5.77,2.32,5.77,5.52ZM532.1,1392.83c0-1.93-1.52-3.28-3.4-3.28s-3.37,1.43-3.37,3.32,1.57,3.25,3.37,3.25c1.9,0,3.4-1.4,3.4-3.3Z"/>
  </g>
  <g>
    <path d="M305.59,1297.38c3.7,0,6.02,2.2,6.02,5.4s-2.32,5.45-6.02,5.45h-4.87v5.9h-2.67v-16.75h7.55ZM305.59,1305.78c2.1,0,3.35-1.2,3.35-3s-1.25-2.97-3.35-2.97h-4.87v5.97h4.87Z"/>
    <path d="M326.04,1314.13h-2.6v-1.52c-1,1.2-2.45,1.88-4.27,1.88-3,0-4.97-2.15-4.97-5.27v-7.47h2.6v6.95c0,2.02,1.17,3.4,2.97,3.4,2.22,0,3.67-1.5,3.67-4.62v-5.72h2.6v12.4Z"/>
    <path d="M338.19,1301.68l-.17,2.5c-.2-.03-.5-.03-.73-.03-3.15,0-4.7,2.2-4.7,5.6v4.37h-2.6v-12.4h2.6v2.65c1-1.65,2.57-2.8,4.72-2.8.3,0,.55,0,.88.1Z"/>
    <path d="M352.49,1307.93c0,3.85-2.97,6.5-6.62,6.5s-6.67-2.65-6.67-6.5,3-6.47,6.67-6.47,6.62,2.62,6.62,6.47ZM349.96,1307.93c0-2.57-1.97-4.25-4.1-4.25s-4.12,1.67-4.12,4.25,1.95,4.25,4.12,4.25,4.1-1.67,4.1-4.25Z"/>
    <path d="M364.46,1314.13l-5.72-5.15h-.75v5.15h-2.6v-18h2.6v10.27h.77l5.17-4.67h3.32l-6.5,6,7.22,6.4h-3.52Z"/>
    <path d="M386.24,1299.28l-6.15,14.85h-2.95l6.17-14.32h-8.6v-2.42h11.52v1.9Z"/>
  </g>
  <g>
    <path d="M319.23,1505.82c3.7,0,6.02,2.2,6.02,5.4s-2.32,5.45-6.02,5.45h-4.87v5.9h-2.67v-16.75h7.55ZM319.23,1514.22c2.1,0,3.35-1.2,3.35-3s-1.25-2.97-3.35-2.97h-4.87v5.97h4.87Z"/>
    <path d="M339.68,1522.57h-2.6v-1.52c-1,1.2-2.45,1.88-4.27,1.88-3,0-4.97-2.15-4.97-5.27v-7.47h2.6v6.95c0,2.02,1.17,3.4,2.97,3.4,2.22,0,3.67-1.5,3.67-4.62v-5.72h2.6v12.4Z"/>
    <path d="M351.83,1510.12l-.17,2.5c-.2-.02-.5-.02-.73-.02-3.15,0-4.7,2.2-4.7,5.6v4.37h-2.6v-12.4h2.6v2.65c1-1.65,2.57-2.8,4.72-2.8.3,0,.55,0,.88.1Z"/>
    <path d="M366.13,1516.37c0,3.85-2.97,6.5-6.62,6.5s-6.67-2.65-6.67-6.5,3-6.47,6.67-6.47,6.62,2.62,6.62,6.47ZM363.6,1516.37c0-2.57-1.97-4.25-4.1-4.25s-4.12,1.67-4.12,4.25,1.95,4.25,4.12,4.25,4.1-1.67,4.1-4.25Z"/>
    <path d="M378.1,1522.57l-5.72-5.15h-.75v5.15h-2.6v-18h2.6v10.27h.77l5.17-4.67h3.32l-6.5,6,7.22,6.4h-3.52Z"/>
    <path d="M395.38,1512.09c3.37,0,5.62,1.95,5.62,5.2s-2.4,5.62-6.05,5.62c-3.37,0-6.12-2.05-6.12-5.77l2.6-.5c0,2.57,1.55,3.85,3.6,3.85s3.4-1.25,3.4-3.15c0-1.8-1.3-2.85-3.25-2.85h-5.42l.32-8.67h10.2v2.42h-7.72l-.17,3.85h3Z"/>
  </g>
  <g>
    <path d="M516.96,1708.65c3.7,0,6.02,2.2,6.02,5.4s-2.32,5.45-6.02,5.45h-4.87v5.9h-2.67v-16.75h7.55ZM516.96,1717.05c2.1,0,3.35-1.2,3.35-3s-1.25-2.97-3.35-2.97h-4.87v5.97h4.87Z"/>
    <path d="M537.41,1725.4h-2.6v-1.52c-1,1.2-2.45,1.87-4.27,1.87-3,0-4.97-2.15-4.97-5.27v-7.47h2.6v6.95c0,2.02,1.17,3.4,2.97,3.4,2.22,0,3.67-1.5,3.67-4.62v-5.72h2.6v12.4Z"/>
    <path d="M549.56,1712.95l-.18,2.5c-.2-.02-.5-.02-.72-.02-3.15,0-4.7,2.2-4.7,5.6v4.37h-2.6v-12.4h2.6v2.65c1-1.65,2.57-2.8,4.72-2.8.3,0,.55,0,.88.1Z"/>
    <path d="M563.86,1719.2c0,3.85-2.97,6.5-6.62,6.5s-6.67-2.65-6.67-6.5,3-6.47,6.67-6.47,6.62,2.62,6.62,6.47ZM561.33,1719.2c0-2.58-1.97-4.25-4.1-4.25s-4.12,1.67-4.12,4.25,1.95,4.25,4.12,4.25,4.1-1.67,4.1-4.25Z"/>
    <path d="M575.83,1725.4l-5.72-5.15h-.75v5.15h-2.6v-18h2.6v10.27h.77l5.17-4.67h3.32l-6.5,6,7.22,6.4h-3.52Z"/>
    <path d="M598.78,1720.52c0,3.12-2.35,5.22-5.82,5.22s-5.9-2.17-6.15-5.37l2.52-.5c.23,2.17,1.48,3.52,3.62,3.52,1.97,0,3.37-1.15,3.37-2.85,0-1.55-1.15-2.5-3.12-2.5h-2.37v-2.32h2.22c1.85,0,2.97-.9,2.97-2.37,0-1.62-1.23-2.7-3.1-2.7s-3.27,1.17-3.42,3.47l-2.47-.5c.25-3.15,2.52-5.32,5.9-5.32s5.57,2.05,5.57,5.05c0,1.7-.82,2.97-2.17,3.55,1.52.55,2.45,1.85,2.45,3.62Z"/>
  </g>
  <g>
    <path d="M741.03,1853.71h-2.27l-10.12-12.02v12.02h-2.67v-16.75h2.27l10.1,12.22v-12.22h2.7v16.75Z"/>
    <path d="M761.67,1845.36c0,4.85-3.85,8.7-8.75,8.7s-8.72-3.85-8.72-8.7,3.82-8.75,8.72-8.75,8.75,3.87,8.75,8.75ZM758.97,1845.36c0-3.55-2.65-6.22-6.05-6.22s-6.02,2.67-6.02,6.22,2.65,6.17,6.02,6.17,6.05-2.65,6.05-6.17Z"/>
    <path d="M775.9,1853.71l-5.97-6.67h-2.42v6.67h-2.67v-16.75h7.87c3.45,0,5.75,2.02,5.75,5.05s-2.1,4.82-5.27,5l6.05,6.7h-3.32ZM772.7,1844.61c1.85,0,3.07-1.05,3.07-2.6s-1.22-2.62-3.07-2.62h-5.2v5.22h5.2Z"/>
    <path d="M788.03,1839.39v14.32h-2.7v-14.32h-5.87v-2.42h14.47v2.42h-5.9Z"/>
    <path d="M810.88,1853.71h-2.67v-7.2h-9.05v7.2h-2.67v-16.75h2.67v7.1h9.05v-7.1h2.67v16.75Z"/>
    <path d="M834.47,1847.31l2.6.55c-.92,3.92-4.17,6.2-8.12,6.2-4.87,0-8.72-3.82-8.72-8.72s3.85-8.72,8.72-8.72c3.95,0,7.17,2.3,8.12,6l-2.6.75c-.75-2.82-2.9-4.22-5.52-4.22-3.37,0-6.02,2.67-6.02,6.2s2.65,6.2,6.02,6.2c2.62,0,4.77-1.4,5.52-4.22Z"/>
    <path d="M852.72,1853.71h-12.47v-16.75h12.45v2.42h-9.77v4.72h9.02v2.4h-9.02v4.77h9.8v2.42Z"/>
    <path d="M871.22,1853.71h-2.27l-10.12-12.02v12.02h-2.67v-16.75h2.27l10.1,12.22v-12.22h2.7v16.75Z"/>
    <path d="M877.6,1852.21c0,.9-.68,1.6-1.62,1.6s-1.65-.7-1.65-1.6c0-.85.7-1.57,1.65-1.57s1.62.72,1.62,1.57Z"/>
    <path d="M899.17,1841.34l-2.67.55c-.3-1.78-1.82-2.95-3.82-2.95s-3.27,1.07-3.27,2.55c0,1.17.67,1.8,2.12,2.1l3.62.78c2.5.55,4.3,1.95,4.3,4.57,0,3.15-2.58,5.12-6.42,5.12-3.55,0-6.5-1.72-6.92-4.97l2.85-.6c.4,2.15,2.07,3.2,4.32,3.2s3.52-1.07,3.52-2.6c0-1.27-.67-1.87-2.35-2.22l-3.65-.75c-2.07-.48-4.22-1.58-4.22-4.55s2.42-4.95,6.15-4.95c3.4,0,5.85,1.85,6.45,4.72Z"/>
    <path d="M916.07,1847.31l2.6.55c-.92,3.92-4.17,6.2-8.12,6.2-4.87,0-8.72-3.82-8.72-8.72s3.85-8.72,8.72-8.72c3.95,0,7.17,2.3,8.12,6l-2.6.75c-.75-2.82-2.9-4.22-5.52-4.22-3.37,0-6.02,2.67-6.02,6.2s2.65,6.2,6.02,6.2c2.62,0,4.77-1.4,5.52-4.22Z"/>
    <path d="M936.25,1853.71h-2.67v-7.2h-9.05v7.2h-2.67v-16.75h2.67v7.1h9.05v-7.1h2.67v16.75Z"/>
  </g>
  <g>
    <path d="M798.43,1197.39c3.95,0,6.42,2.06,6.42,5.06s-2.48,5.11-6.42,5.11h-5.2v5.53h-2.85v-15.7h8.05ZM798.43,1205.26c2.24,0,3.57-1.12,3.57-2.81s-1.33-2.79-3.57-2.79h-5.2v5.6h5.2Z"/>
    <path d="M820.24,1213.09h-2.77v-1.43c-1.07,1.12-2.61,1.76-4.56,1.76-3.2,0-5.3-2.02-5.3-4.95v-7.01h2.77v6.52c0,1.9,1.25,3.19,3.17,3.19,2.37,0,3.92-1.41,3.92-4.34v-5.37h2.77v11.62Z"/>
    <path d="M833.19,1201.42l-.19,2.34c-.21-.02-.53-.02-.77-.02-3.36,0-5.01,2.06-5.01,5.25v4.1h-2.77v-11.62h2.77v2.48c1.07-1.55,2.75-2.62,5.04-2.62.32,0,.59,0,.93.09Z"/>
    <path d="M848.44,1207.28c0,3.61-3.17,6.09-7.06,6.09s-7.12-2.48-7.12-6.09,3.2-6.07,7.12-6.07,7.06,2.46,7.06,6.07ZM845.75,1207.28c0-2.41-2.11-3.98-4.37-3.98s-4.4,1.57-4.4,3.98,2.08,3.98,4.4,3.98,4.37-1.57,4.37-3.98Z"/>
    <path d="M861.21,1213.09l-6.1-4.83h-.8v4.83h-2.77v-16.88h2.77v9.63h.83l5.52-4.38h3.55l-6.93,5.62,7.7,6h-3.76Z"/>
    <path d="M886.57,1204.91c0,2.84-.64,5.16-2.4,6.75-1.2,1.08-2.88,1.76-4.85,1.76-2.91,0-5.15-1.27-5.89-3.59l2.75-.47c.48,1.31,1.63,1.83,3.25,1.83,1.2,0,2.19-.45,2.88-1.1,1.23-1.2,1.63-2.88,1.57-4.55-.99,1.24-2.83,1.99-4.72,1.99-3.84,0-6.18-2.18-6.18-5.16s2.59-5.32,6.42-5.32c4.4,0,7.17,2.86,7.17,7.85ZM883.05,1202.36c0-1.8-1.65-3.05-3.6-3.05s-3.63,1.31-3.63,3.09,1.63,3.07,3.63,3.07,3.6-1.34,3.6-3.12Z"/>
  </g>
  <g>
    <path d="M542.25,1073.26c3.7,0,6.02,2.2,6.02,5.4s-2.32,5.45-6.02,5.45h-4.87v5.9h-2.67v-16.75h7.55ZM542.25,1081.66c2.1,0,3.35-1.2,3.35-3s-1.25-2.97-3.35-2.97h-4.87v5.97h4.87Z"/>
    <path d="M562.7,1090h-2.6v-1.52c-1,1.2-2.45,1.88-4.27,1.88-3,0-4.97-2.15-4.97-5.27v-7.47h2.6v6.95c0,2.02,1.17,3.4,2.97,3.4,2.22,0,3.67-1.5,3.67-4.62v-5.72h2.6v12.4Z"/>
    <path d="M574.85,1077.56l-.17,2.5c-.2-.03-.5-.03-.73-.03-3.15,0-4.7,2.2-4.7,5.6v4.37h-2.6v-12.4h2.6v2.65c1-1.65,2.57-2.8,4.72-2.8.3,0,.55,0,.88.1Z"/>
    <path d="M589.15,1083.81c0,3.85-2.97,6.5-6.62,6.5s-6.67-2.65-6.67-6.5,3-6.47,6.67-6.47,6.62,2.62,6.62,6.47ZM586.62,1083.81c0-2.57-1.97-4.25-4.1-4.25s-4.12,1.67-4.12,4.25,1.95,4.25,4.12,4.25,4.1-1.67,4.1-4.25Z"/>
    <path d="M601.12,1090l-5.72-5.15h-.75v5.15h-2.6v-18h2.6v10.27h.77l5.17-4.67h3.32l-6.5,6,7.22,6.4h-3.52Z"/>
    <path d="M624.3,1085.53c0,2.85-2.5,4.82-6.22,4.82s-6.27-1.97-6.27-4.82c0-1.75,1.15-3.35,3.38-4.05-1.92-.7-2.88-2.22-2.88-4.05,0-2.7,2.3-4.52,5.77-4.52s5.72,1.82,5.72,4.52c0,1.77-.92,3.32-2.85,4.05,2.22.7,3.35,2.32,3.35,4.05ZM621.37,1085.36c0-1.67-1.45-2.67-3.32-2.67s-3.27,1-3.27,2.72,1.42,2.67,3.25,2.67,3.35-.98,3.35-2.72ZM614.98,1077.66c0,1.6,1.3,2.52,3.05,2.52s3.15-.97,3.15-2.57-1.42-2.52-3.12-2.52-3.07.92-3.07,2.57Z"/>
  </g>
  <g>
    <path d="M1356.97,865.88h-2.6v-11.07l-5.92,11.07h-1.27l-5.95-11.07v11.07h-2.6v-16.75h2.35l6.82,12.67,6.85-12.67h2.33v16.75Z"/>
    <path d="M1373.22,853.51l-2.67.55c-.3-1.77-1.83-2.95-3.82-2.95s-3.27,1.07-3.27,2.55c0,1.17.67,1.8,2.12,2.1l3.62.77c2.5.55,4.3,1.95,4.3,4.57,0,3.15-2.58,5.12-6.42,5.12-3.55,0-6.5-1.72-6.92-4.97l2.85-.6c.4,2.15,2.07,3.2,4.32,3.2s3.52-1.07,3.52-2.6c0-1.27-.67-1.87-2.35-2.22l-3.65-.75c-2.07-.48-4.22-1.57-4.22-4.55s2.42-4.95,6.15-4.95c3.4,0,5.85,1.85,6.45,4.72Z"/>
    <path d="M1390.9,858.48c0,4.62-2.82,7.75-7.07,7.75s-7.22-3.12-7.22-7.75v-9.35h2.67v9.35c0,3.12,1.8,5.17,4.55,5.17s4.4-2.05,4.4-5.17v-9.35h2.67v9.35Z"/>
    <path d="M1394.2,860.63v-2.25h8.15v2.25h-8.15Z"/>
    <path d="M1405.83,865.88v-16.75h2.67v16.75h-2.67Z"/>
    <path d="M1412.45,865.88v-16.75h2.67v16.75h-2.67Z"/>
    <path d="M1426.25,851.56v14.32h-2.7v-14.32h-5.87v-2.42h14.47v2.42h-5.9Z"/>
  </g>
</svg>